<?xml version="1.0" standalone="no"?>
<!DOCTYPE svg PUBLIC "-//W3C//DTD SVG 20010904//EN"
 "http://www.w3.org/TR/2001/REC-SVG-20010904/DTD/svg10.dtd">
<svg version="1.0" xmlns="http://www.w3.org/2000/svg"
 width="764.000000pt" height="764.000000pt" viewBox="0 0 764.000000 764.000000"
 preserveAspectRatio="xMidYMid meet">

<g transform="translate(0.000000,764.000000) scale(0.100000,-0.100000)"
fill="#000000" stroke="none">
<path d="M837 7530 c6 -22 -12 -28 -21 -7 -3 8 -9 6 -20 -7 -22 -27 -21 -89 2
-108 21 -19 189 -87 223 -90 13 -2 30 -9 37 -15 7 -7 22 -13 33 -13 23 0 49
-47 32 -58 -34 -21 -63 -747 -34 -849 24 -86 105 -109 176 -50 157 128 562
588 548 623 -3 9 0 12 9 9 9 -4 25 8 42 30 15 19 24 35 21 35 -3 0 11 15 32
33 21 17 44 39 51 47 11 13 12 12 7 -7 -4 -13 -4 -23 -1 -23 33 0 224 -34 234
-42 6 -6 12 -26 12 -45 0 -19 4 -32 8 -29 4 2 14 1 22 -5 12 -7 10 -9 -8 -9
-21 0 -22 -3 -16 -57 4 -32 24 -141 45 -243 22 -102 41 -198 44 -215 12 -74
83 -290 104 -316 22 -28 111 -40 111 -16 0 10 6 14 14 11 15 -6 66 62 168 226
60 97 84 138 179 305 19 33 54 101 77 150 76 157 51 140 204 139 149 0 173 -7
183 -56 4 -18 10 -37 14 -43 4 -5 8 -19 8 -31 1 -12 17 -63 36 -115 19 -52 49
-134 67 -184 18 -49 36 -94 41 -100 5 -5 9 -15 9 -22 0 -21 130 -310 151 -338
26 -32 77 -42 116 -22 50 26 81 84 177 327 33 84 42 116 33 122 -9 6 -8 8 3 8
11 0 34 58 79 194 35 107 61 200 59 207 -2 7 5 22 16 33 18 18 34 20 165 20
l146 1 45 -87 c25 -49 50 -88 57 -88 7 0 10 -7 7 -15 -3 -8 13 -49 36 -92 54
-100 93 -167 100 -173 3 -3 12 -18 22 -35 9 -16 26 -35 38 -41 12 -7 17 -13
10 -16 -6 -2 5 -26 27 -58 22 -30 54 -81 72 -113 47 -83 88 -123 136 -131 36
-7 42 -5 66 22 15 17 35 56 44 89 25 83 63 242 74 310 6 32 22 117 36 188 13
72 30 176 37 233 10 88 10 105 -3 114 -11 8 -11 9 3 5 9 -3 69 3 135 14 175
28 176 28 212 -30 29 -49 167 -223 229 -291 18 -19 32 -38 32 -42 0 -5 9 -8
20 -8 12 0 20 -7 20 -16 0 -8 23 -42 51 -75 43 -49 56 -58 75 -53 17 5 24 2
24 -9 0 -8 -5 -17 -11 -19 -6 -2 19 -32 55 -66 36 -35 69 -61 74 -58 4 2 14
-9 21 -25 7 -16 23 -32 36 -35 13 -3 26 -12 29 -20 3 -9 20 -14 47 -14 33 0
47 6 69 30 26 28 29 39 35 134 8 118 1 400 -15 566 -3 37 -21 188 -26 216 l-4
31 122 43 c190 66 228 95 219 165 -3 31 -48 65 -84 65 -24 0 -28 -3 -19 -12
16 -16 15 -28 -3 -28 -8 0 -14 6 -12 13 3 16 -15 13 -105 -19 -59 -20 -78 -31
-78 -45 0 -11 -4 -19 -10 -19 -5 0 -10 5 -10 11 0 14 -29 9 -133 -23 -43 -13
-75 -27 -71 -30 3 -4 -7 -6 -24 -6 -16 1 -34 -2 -40 -6 -12 -7 -254 -73 -317
-86 -22 -4 -69 -14 -104 -21 -35 -7 -65 -19 -68 -26 -3 -9 -10 -10 -22 -3 -11
5 -34 5 -62 -1 -49 -11 -383 -68 -439 -74 -19 -3 -93 -11 -165 -20 -186 -22
-291 -33 -365 -39 -36 -3 -99 -8 -140 -11 -141 -11 -235 -13 -740 -12 -648 1
-630 1 -630 10 0 4 -33 8 -72 8 -81 0 -84 0 -393 35 -351 39 -560 73 -845 138
-91 21 -156 32 -158 26 -2 -6 -10 -10 -18 -10 -9 0 -13 4 -9 9 3 5 0 13 -7 18
-15 9 -132 42 -168 47 -14 2 -38 9 -55 15 -16 7 -63 21 -105 33 -41 11 -84 24
-95 28 -11 5 -33 13 -50 18 -16 6 -75 27 -129 46 -116 42 -157 46 -149 16z
m223 -76 c0 -17 -22 -14 -28 4 -2 7 3 12 12 12 9 0 16 -7 16 -16z m140 -139
c0 -8 -4 -15 -8 -15 -5 0 -9 7 -9 15 0 8 4 15 9 15 4 0 8 -7 8 -15z m130 11
c0 -3 -4 -8 -10 -11 -5 -3 -10 -1 -10 4 0 6 5 11 10 11 6 0 10 -2 10 -4z
m4960 -11 c0 -8 -7 -15 -15 -15 -8 0 -15 7 -15 15 0 8 7 15 15 15 8 0 15 -7
15 -15z m-4880 -65 c0 -5 -8 -10 -17 -10 -15 0 -16 2 -3 10 19 12 20 12 20 0z
m425 0 c3 -5 -1 -10 -9 -10 -9 0 -16 5 -16 10 0 6 4 10 9 10 6 0 13 -4 16 -10z
m4245 0 c0 -5 -7 -10 -15 -10 -8 0 -15 5 -15 10 0 6 7 10 15 10 8 0 15 -4 15
-10z m-4180 -74 c0 -3 -4 -8 -10 -11 -5 -3 -10 -1 -10 4 0 6 5 11 10 11 6 0
10 -2 10 -4z m3385 -6 c3 -5 1 -10 -4 -10 -6 0 -11 5 -11 10 0 6 2 10 4 10 3
0 8 -4 11 -10z m-3808 -6 c-3 -3 -12 -4 -19 -1 -8 3 -5 6 6 6 11 1 17 -2 13
-5z m-207 -59 c0 -8 -7 -15 -15 -15 -8 0 -15 7 -15 15 0 8 7 15 15 15 8 0 15
-7 15 -15z m418 3 c-6 -18 -28 -21 -28 -4 0 9 7 16 16 16 9 0 14 -5 12 -12z
m712 -3 c0 -8 -7 -15 -15 -15 -16 0 -20 12 -8 23 11 12 23 8 23 -8z m2690 0
c0 -8 -7 -15 -15 -15 -16 0 -20 12 -8 23 11 12 23 8 23 -8z m420 0 c0 -8 -7
-15 -15 -15 -8 0 -15 7 -15 15 0 8 7 15 15 15 8 0 15 -7 15 -15z m430 11 c0
-2 -7 -9 -15 -16 -12 -10 -15 -10 -15 4 0 9 7 16 15 16 8 0 15 -2 15 -4z
m-3120 -16 c0 -5 -4 -10 -10 -10 -5 0 -10 5 -10 10 0 6 5 10 10 10 6 0 10 -4
10 -10z m3400 0 c0 -5 -5 -10 -11 -10 -5 0 -7 5 -4 10 3 6 8 10 11 10 2 0 4
-4 4 -10z m-4740 -60 c0 -5 -2 -10 -4 -10 -3 0 -8 5 -11 10 -3 6 -1 10 4 10 6
0 11 -4 11 -10z m1127 4 c-3 -3 -12 -4 -19 -1 -8 3 -5 6 6 6 11 1 17 -2 13 -5z
m428 -4 c3 -5 2 -10 -4 -10 -5 0 -13 5 -16 10 -3 6 -2 10 4 10 5 0 13 -4 16
-10z m715 6 c0 -11 -19 -15 -25 -6 -3 5 1 10 9 10 9 0 16 -2 16 -4z m415 -6
c3 -6 -1 -7 -9 -4 -18 7 -21 14 -7 14 6 0 13 -4 16 -10z m420 0 c3 -6 -1 -7
-9 -4 -18 7 -21 14 -7 14 6 0 13 -4 16 -10z m295 0 c0 -5 -8 -10 -17 -10 -15
0 -16 2 -3 10 19 12 20 12 20 0z m850 6 c0 -11 -19 -15 -25 -6 -3 5 1 10 9 10
9 0 16 -2 16 -4z m410 -6 c0 -5 -2 -10 -4 -10 -3 0 -8 5 -11 10 -3 6 -1 10 4
10 6 0 11 -4 11 -10z m-4736 -79 c3 -5 -1 -11 -9 -14 -9 -4 -12 -1 -8 9 6 16
10 17 17 5z m1566 -7 c0 -2 -7 -4 -15 -4 -8 0 -15 4 -15 10 0 5 7 7 15 4 8 -4
15 -8 15 -10z m420 0 c0 -2 -7 -4 -15 -4 -8 0 -15 4 -15 10 0 5 7 7 15 4 8 -4
15 -8 15 -10z m415 6 c3 -5 1 -10 -4 -10 -6 0 -11 5 -11 10 0 6 2 10 4 10 3 0
8 -4 11 -10z m710 0 c3 -5 -1 -10 -9 -10 -9 0 -16 5 -16 10 0 6 4 10 9 10 6 0
13 -4 16 -10z m435 -6 c0 -2 -7 -4 -15 -4 -8 0 -15 4 -15 10 0 5 7 7 15 4 8
-4 15 -8 15 -10z m1130 0 c0 -2 -7 -4 -15 -4 -8 0 -15 4 -15 10 0 5 7 7 15 4
8 -4 15 -8 15 -10z m-4885 -73 c-3 -6 -11 -11 -17 -11 -6 0 -6 6 2 15 14 17
26 13 15 -4z m425 4 c0 -9 -6 -12 -15 -9 -8 4 -12 10 -9 15 8 14 24 10 24 -6z
m840 5 c0 -5 -4 -10 -10 -10 -5 0 -10 5 -10 10 0 6 5 10 10 10 6 0 10 -4 10
-10z m290 -6 c0 -8 -5 -12 -10 -9 -6 4 -8 11 -5 16 9 14 15 11 15 -7z m850 6
c0 -5 -7 -10 -15 -10 -8 0 -15 5 -15 10 0 6 7 10 15 10 8 0 15 -4 15 -10z
m1130 -6 c0 -8 -4 -12 -10 -9 -5 3 -10 10 -10 16 0 5 5 9 10 9 6 0 10 -7 10
-16z m425 6 c-3 -5 -10 -10 -16 -10 -5 0 -9 5 -9 10 0 6 7 10 16 10 8 0 12 -4
9 -10z m713 -1 c-2 -6 -8 -10 -13 -10 -5 0 -11 4 -13 10 -2 6 4 11 13 11 9 0
15 -5 13 -11z m422 1 c0 -5 -7 -10 -15 -10 -8 0 -15 5 -15 10 0 6 7 10 15 10
8 0 15 -4 15 -10z m-2193 -66 c-3 -3 -12 -4 -19 -1 -8 3 -5 6 6 6 11 1 17 -2
13 -5z m-2410 -20 c-3 -3 -12 -4 -19 -1 -8 3 -5 6 6 6 11 1 17 -2 13 -5z
m-209 -56 c-6 -18 -28 -21 -28 -4 0 9 7 16 16 16 9 0 14 -5 12 -12z m1132 -3
c0 -8 -7 -15 -15 -15 -8 0 -15 7 -15 15 0 8 7 15 15 15 8 0 15 -7 15 -15z
m1130 0 c0 -8 -7 -15 -15 -15 -9 0 -12 6 -9 15 4 8 10 15 15 15 5 0 9 -7 9
-15z m1140 -6 c0 -5 -7 -9 -15 -9 -9 0 -12 6 -9 15 6 15 24 11 24 -6z m1254 6
c-4 -8 -8 -15 -10 -15 -2 0 -4 7 -4 15 0 8 4 15 10 15 5 0 7 -7 4 -15z m291
-6 c-10 -15 -25 -10 -19 6 4 8 10 12 15 9 5 -3 7 -10 4 -15z m-415 1 c0 -5 -2
-10 -4 -10 -3 0 -8 5 -11 10 -3 6 -1 10 4 10 6 0 11 -4 11 -10z m-4740 -60 c0
-5 -4 -10 -9 -10 -6 0 -13 5 -16 10 -3 6 1 10 9 10 9 0 16 -4 16 -10z m1130 0
c0 -5 -7 -10 -15 -10 -8 0 -15 5 -15 10 0 6 7 10 15 10 8 0 15 -4 15 -10z
m420 -6 c0 -8 -4 -12 -10 -9 -5 3 -10 10 -10 16 0 5 5 9 10 9 6 0 10 -7 10
-16z m710 6 c0 -5 -5 -10 -11 -10 -5 0 -7 5 -4 10 3 6 8 10 11 10 2 0 4 -4 4
-10z m430 -5 c0 -9 -6 -12 -15 -9 -8 4 -15 10 -15 15 0 5 7 9 15 9 8 0 15 -7
15 -15z m1130 5 c0 -5 -7 -10 -15 -10 -8 0 -15 5 -15 10 0 6 7 10 15 10 8 0
15 -4 15 -10z m-430 -10 c0 -5 -5 -10 -11 -10 -5 0 -7 5 -4 10 3 6 8 10 11 10
2 0 4 -4 4 -10z m-1063 -76 c-3 -3 -12 -4 -19 -1 -8 3 -5 6 6 6 11 1 17 -2 13
-5z m-2483 -59 c-4 -8 -8 -15 -10 -15 -2 0 -4 7 -4 15 0 8 4 15 10 15 5 0 7
-7 4 -15z m296 0 c0 -8 -7 -15 -15 -15 -9 0 -12 6 -9 15 4 8 10 15 15 15 5 0
9 -7 9 -15z m2394 0 c-4 -8 -8 -15 -10 -15 -2 0 -4 7 -4 15 0 8 4 15 10 15 5
0 7 -7 4 -15z m1144 3 c-6 -18 -28 -21 -28 -4 0 9 7 16 16 16 9 0 14 -5 12
-12z m-3748 -68 c0 -5 -5 -10 -11 -10 -5 0 -7 5 -4 10 3 6 8 10 11 10 2 0 4
-4 4 -10z m1270 6 c0 -11 -19 -15 -25 -6 -3 5 1 10 9 10 9 0 16 -2 16 -4z
m280 -6 c0 -5 -5 -10 -11 -10 -5 0 -7 5 -4 10 3 6 8 10 11 10 2 0 4 -4 4 -10z
m850 0 c0 -5 -7 -7 -15 -4 -8 4 -15 8 -15 10 0 2 7 4 15 4 8 0 15 -4 15 -10z
m1560 0 c0 -5 -4 -10 -9 -10 -6 0 -13 5 -16 10 -3 6 1 10 9 10 9 0 16 -4 16
-10z m1130 0 c0 -5 -4 -10 -9 -10 -6 0 -13 5 -16 10 -3 6 1 10 9 10 9 0 16 -4
16 -10z m-3900 -75 c10 -12 10 -15 -4 -15 -9 0 -16 7 -16 15 0 8 2 15 4 15 2
0 9 -7 16 -15z m2684 0 c3 -8 1 -15 -4 -15 -6 0 -10 7 -10 15 0 8 2 15 4 15 2
0 6 -7 10 -15z m-3804 -11 c0 -2 -7 -4 -15 -4 -8 0 -15 4 -15 10 0 5 7 7 15 4
8 -4 15 -8 15 -10z m2675 6 c3 -5 1 -10 -4 -10 -6 0 -11 5 -11 10 0 6 2 10 4
10 3 0 8 -4 11 -10z m-1335 -65 c0 -8 -7 -15 -15 -15 -8 0 -15 7 -15 15 0 8 7
15 15 15 8 0 15 -7 15 -15z m1130 0 c0 -8 -4 -15 -10 -15 -5 0 -10 7 -10 15 0
8 5 15 10 15 6 0 10 -7 10 -15z m1140 0 c0 -8 -7 -15 -15 -15 -9 0 -12 6 -9
15 4 8 10 15 15 15 5 0 9 -7 9 -15z m-2483 -61 c-3 -3 -12 -4 -19 -1 -8 3 -5
6 6 6 11 1 17 -2 13 -5z m2690 0 c-3 -3 -12 -4 -19 -1 -8 3 -5 6 6 6 11 1 17
-2 13 -5z m-2627 -84 c0 -5 -4 -10 -10 -10 -5 0 -10 5 -10 10 0 6 5 10 10 10
6 0 10 -4 10 -10z m1354 -65 c-4 -8 -10 -15 -15 -15 -5 0 -9 7 -9 15 0 8 7 15
15 15 9 0 12 -6 9 -15z"/>
<path d="M7173 6230 c-12 -5 -27 -18 -33 -29 -6 -12 -16 -21 -23 -21 -16 -1
-67 -46 -67 -60 0 -6 -4 -9 -8 -6 -4 2 -55 -42 -112 -100 -69 -68 -99 -104
-87 -104 10 0 15 -5 12 -11 -4 -6 -14 -8 -23 -4 -24 9 -134 -103 -126 -129 5
-14 3 -18 -9 -13 -10 4 -33 -14 -69 -54 -29 -33 -80 -88 -113 -123 -72 -75
-116 -126 -170 -192 -22 -27 -56 -67 -76 -89 -137 -156 -353 -440 -344 -455 3
-5 -1 -10 -9 -10 -9 0 -23 -12 -33 -27 -9 -16 -29 -42 -44 -59 -55 -66 -379
-561 -379 -580 0 -2 5 -4 11 -4 6 0 23 -9 37 -21 88 -68 212 -158 229 -168 18
-9 30 -1 100 72 44 45 111 116 148 157 38 41 78 84 89 96 98 99 300 330 397
452 33 43 95 122 139 177 44 55 80 106 80 113 0 6 4 12 8 12 18 0 342 471 342
497 0 7 4 13 9 13 17 0 215 326 206 340 -3 5 0 10 8 10 17 0 105 153 113 198
8 39 -13 74 -66 110 -35 23 -95 29 -137 12z m37 -120 c0 -5 -7 -10 -16 -10 -8
0 -12 5 -9 10 3 6 10 10 16 10 5 0 9 -4 9 -10z m-140 -141 c0 -5 -7 -9 -15 -9
-8 0 -15 7 -15 15 0 9 6 12 15 9 8 -4 15 -10 15 -15z m-220 -209 c0 -5 -2 -10
-4 -10 -3 0 -8 5 -11 10 -3 6 -1 10 4 10 6 0 11 -4 11 -10z m150 -5 c0 -8 -7
-15 -15 -15 -9 0 -12 6 -9 15 4 8 10 15 15 15 5 0 9 -7 9 -15z m-80 -65 c0 -5
-2 -10 -4 -10 -3 0 -8 5 -11 10 -3 6 -1 10 4 10 6 0 11 -4 11 -10z m-60 -86
c0 -2 -7 -4 -15 -4 -8 0 -15 4 -15 10 0 5 7 7 15 4 8 -4 15 -8 15 -10z m-220
-59 c0 -8 -7 -15 -15 -15 -9 0 -12 6 -9 15 4 8 10 15 15 15 5 0 9 -7 9 -15z
m-140 -146 c0 -5 -7 -9 -15 -9 -8 0 -15 7 -15 15 0 9 6 12 15 9 8 -4 15 -10
15 -15z m420 17 c0 -3 -4 -8 -10 -11 -5 -3 -10 -1 -10 4 0 6 5 11 10 11 6 0
10 -2 10 -4z m-210 -75 c0 -17 -18 -21 -24 -6 -3 9 0 15 9 15 8 0 15 -4 15 -9z
m-284 -158 c-10 -10 -19 5 -10 18 6 11 8 11 12 0 2 -7 1 -15 -2 -18z m-76 -47
c0 -3 -4 -8 -10 -11 -5 -3 -10 -1 -10 4 0 6 5 11 10 11 6 0 10 -2 10 -4z m295
-6 c-3 -5 -13 -10 -21 -10 -8 0 -12 5 -9 10 3 6 13 10 21 10 8 0 12 -4 9 -10z
m-425 -10 c0 -5 -8 -10 -17 -10 -15 0 -16 2 -3 10 19 12 20 12 20 0z m-142
-138 c2 -7 -3 -12 -12 -12 -9 0 -16 7 -16 16 0 17 22 14 28 -4z m422 3 c0 -8
-7 -15 -15 -15 -8 0 -15 7 -15 15 0 8 7 15 15 15 8 0 15 -7 15 -15z m-150
-139 c0 -3 -4 -8 -10 -11 -5 -3 -10 -1 -10 4 0 6 5 11 10 11 6 0 10 -2 10 -4z
m-130 -10 c0 -3 -4 -8 -10 -11 -5 -3 -10 -1 -10 4 0 6 5 11 10 11 6 0 10 -2
10 -4z m-86 -71 c-4 -8 -8 -15 -10 -15 -2 0 -4 7 -4 15 0 8 4 15 10 15 5 0 7
-7 4 -15z m296 0 c0 -8 -7 -15 -15 -15 -9 0 -12 6 -9 15 4 8 10 15 15 15 5 0
9 -7 9 -15z m-562 -143 c2 -7 -3 -12 -12 -12 -9 0 -16 7 -16 16 0 17 22 14 28
-4z m420 0 c2 -7 -3 -12 -12 -12 -9 0 -16 7 -16 16 0 17 22 14 28 -4z m-208
-67 c0 -9 -6 -12 -15 -9 -8 4 -15 10 -15 15 0 5 7 9 15 9 8 0 15 -7 15 -15z
m-140 -129 c0 -2 -7 -9 -15 -16 -12 -10 -15 -10 -15 4 0 9 7 16 15 16 8 0 15
-2 15 -4z m-220 -76 c0 -5 -7 -7 -15 -4 -8 4 -15 8 -15 10 0 2 7 4 15 4 8 0
15 -4 15 -10z m290 -10 c0 -5 -5 -10 -11 -10 -5 0 -7 5 -4 10 3 6 8 10 11 10
2 0 4 -4 4 -10z m-365 -70 c3 -5 1 -10 -4 -10 -6 0 -11 5 -11 10 0 6 2 10 4
10 3 0 8 -4 11 -10z m-81 -65 c-4 -8 -8 -15 -10 -15 -2 0 -4 7 -4 15 0 8 4 15
10 15 5 0 7 -7 4 -15z m306 0 c0 -8 -7 -15 -15 -15 -16 0 -20 12 -8 23 11 12
23 8 23 -8z m-220 -65 c0 -5 -5 -10 -11 -10 -5 0 -7 5 -4 10 3 6 8 10 11 10 2
0 4 -4 4 -10z m65 -80 c3 -5 1 -10 -4 -10 -6 0 -11 5 -11 10 0 6 2 10 4 10 3
0 8 -4 11 -10z"/>
<path d="M2114 5844 c-21 -20 -49 -43 -62 -51 -16 -11 -20 -19 -13 -26 18 -18
12 -29 -10 -22 -16 5 -33 -6 -80 -52 -32 -32 -59 -64 -59 -70 0 -7 -6 -13 -13
-13 -21 0 -60 -47 -51 -61 5 -9 2 -11 -9 -6 -10 4 -26 -5 -44 -26 -16 -18 -61
-61 -102 -97 -40 -35 -68 -66 -62 -68 13 -4 15 -32 2 -32 -5 0 -11 6 -14 13
-3 8 -15 2 -35 -17 -17 -16 -29 -33 -26 -38 3 -4 -1 -8 -9 -8 -20 0 -75 -62
-59 -67 6 -3 12 -9 12 -14 0 -12 -28 -11 -32 1 -2 6 -44 -31 -94 -82 -76 -77
-93 -100 -98 -133 -10 -59 17 -85 88 -85 l53 0 -4 -157 c-3 -116 -1 -158 8
-164 10 -6 10 -11 0 -23 -8 -10 -12 -36 -10 -73 2 -32 0 -64 -5 -71 -6 -10
-102 -12 -468 -10 l-460 3 -23 -29 c-13 -16 -29 -41 -36 -55 -19 -38 -102
-182 -164 -286 -30 -49 -50 -92 -44 -93 6 -3 6 -8 -1 -17 -15 -18 4 -62 31
-70 14 -5 25 -3 27 4 4 13 32 15 32 2 0 -5 -6 -12 -13 -14 -6 -3 14 -6 46 -6
l57 -1 0 -625 0 -625 -47 -1 c-27 -1 -55 -3 -63 -4 -8 -1 -23 -3 -33 -4 -26
-2 -51 -62 -43 -105 13 -70 -37 -66 862 -64 l809 3 5 358 c4 303 7 359 20 367
9 6 145 10 318 10 l303 0 8 -22 c5 -13 6 -44 4 -70 -4 -39 -1 -47 14 -51 16
-4 16 -5 1 -6 -17 -1 -18 -21 -18 -270 0 -151 4 -281 10 -295 l10 -26 803 0
c799 0 804 0 831 21 21 17 26 29 26 68 0 62 -27 93 -79 90 -20 -1 -53 -1 -73
0 l-38 1 0 214 0 215 -69 104 c-59 89 -102 170 -192 362 -10 22 -26 66 -36 98
-9 31 -20 57 -25 57 -4 0 -8 -31 -8 -69 l0 -68 -61 -7 c-34 -3 -90 -6 -125 -6
-52 0 -65 3 -74 19 -5 11 -10 74 -10 140 0 109 2 121 19 131 11 5 69 11 129
11 l109 1 -20 87 c-16 70 -20 126 -22 306 l-1 220 -322 3 -322 2 0 75 c0 65
-2 75 -17 75 -17 1 -17 1 0 14 15 12 17 32 17 170 l0 156 50 0 c63 0 100 31
100 81 0 36 26 9 -365 383 -137 132 -297 285 -355 340 -178 170 -187 178 -218
182 -22 2 -38 -5 -68 -32z m146 -154 c0 -5 -7 -7 -15 -4 -8 4 -15 8 -15 10 0
2 7 4 15 4 8 0 15 -4 15 -10z m-75 -80 c3 -5 -1 -10 -9 -10 -9 0 -16 5 -16 10
0 6 4 10 9 10 6 0 13 -4 16 -10z m-205 -65 c0 -8 -7 -15 -16 -15 -14 0 -14 3
-4 15 7 8 14 15 16 15 2 0 4 -7 4 -15z m420 0 c0 -8 -7 -15 -15 -15 -8 0 -15
7 -15 15 0 8 7 15 15 15 8 0 15 -7 15 -15z m-213 -61 c-3 -3 -12 -4 -19 -1 -8
3 -5 6 6 6 11 1 17 -2 13 -5z m-357 -85 c0 -5 -4 -9 -10 -9 -5 0 -10 7 -10 16
0 8 5 12 10 9 6 -3 10 -10 10 -16z m424 0 c-8 -14 -24 -10 -24 6 0 9 6 12 15
9 8 -4 12 -10 9 -15z m416 11 c0 -5 -2 -10 -4 -10 -3 0 -8 5 -11 10 -3 6 -1
10 4 10 6 0 11 -4 11 -10z m-620 -76 c0 -9 -5 -14 -12 -12 -18 6 -21 28 -4 28
9 0 16 -7 16 -16z m410 0 c0 -8 -4 -12 -10 -9 -5 3 -10 10 -10 16 0 5 5 9 10
9 6 0 10 -7 10 -16z m290 -4 c0 -5 -4 -10 -10 -10 -5 0 -10 5 -10 10 0 6 5 10
10 10 6 0 10 -4 10 -10z m-850 -124 c0 -3 -4 -8 -10 -11 -5 -3 -10 -1 -10 4 0
6 5 11 10 11 6 0 10 -2 10 -4z m290 -17 c0 -5 -7 -9 -15 -9 -9 0 -12 6 -9 15
6 15 24 11 24 -6z m418 3 c2 -7 -3 -12 -12 -12 -9 0 -16 7 -16 16 0 17 22 14
28 -4z m-923 -63 c11 -17 -1 -21 -15 -4 -8 9 -8 15 -2 15 6 0 14 -5 17 -11z
m291 -16 c-10 -10 -19 5 -10 18 6 11 8 11 12 0 2 -7 1 -15 -2 -18z m424 17 c0
-5 -7 -10 -16 -10 -8 0 -12 5 -9 10 3 6 10 10 16 10 5 0 9 -4 9 -10z m424 -5
c-4 -8 -10 -12 -15 -9 -14 8 -10 24 6 24 9 0 12 -6 9 -15z m-469 -88 c84 -41
138 -93 174 -167 24 -50 26 -66 26 -175 0 -107 -3 -125 -24 -169 -32 -64 -114
-146 -176 -177 -45 -21 -63 -24 -170 -24 -111 0 -124 2 -177 28 -62 30 -142
110 -165 165 -7 17 -17 32 -21 32 -10 0 -16 64 -15 150 2 152 107 308 241 356
21 7 81 13 137 14 94 0 105 -2 170 -33z m-945 -57 c0 -5 -4 -10 -10 -10 -5 0
-10 5 -10 10 0 6 5 10 10 10 6 0 10 -4 10 -10z m420 0 c0 -5 -4 -10 -10 -10
-5 0 -10 5 -10 10 0 6 5 10 10 10 6 0 10 -4 10 -10z m1140 0 c0 -5 -7 -10 -15
-10 -8 0 -15 5 -15 10 0 6 7 10 15 10 8 0 15 -4 15 -10z m-150 -144 c0 -3 -4
-8 -10 -11 -5 -3 -10 -1 -10 4 0 6 5 11 10 11 6 0 10 -2 10 -4z m-1342 -67
c-2 -6 -8 -10 -13 -10 -5 0 -11 4 -13 10 -2 6 4 11 13 11 9 0 15 -5 13 -11z
m1132 -5 c0 -9 -5 -14 -12 -12 -18 6 -21 28 -4 28 9 0 16 -7 16 -16z m-990
-145 c0 -5 -7 -9 -15 -9 -9 0 -12 6 -9 15 6 15 24 11 24 -6z m1130 6 c0 -8 -4
-15 -10 -15 -5 0 -7 7 -4 15 4 8 8 15 10 15 2 0 4 -7 4 -15z m-80 -65 c0 -5
-2 -10 -4 -10 -3 0 -8 5 -11 10 -3 6 -1 10 4 10 6 0 11 -4 11 -10z m-982 -142
c-6 -18 -25 -21 -25 -3 0 8 7 15 15 15 7 0 12 -5 10 -12z m1132 -3 c0 -8 -4
-15 -10 -15 -5 0 -10 7 -10 15 0 8 5 15 10 15 6 0 10 -7 10 -15z m-990 -5 c0
-5 -2 -10 -4 -10 -3 0 -8 5 -11 10 -3 6 -1 10 4 10 6 0 11 -4 11 -10z m-1200
-60 c0 -5 -5 -10 -11 -10 -5 0 -7 5 -4 10 3 6 8 10 11 10 2 0 4 -4 4 -10z
m430 0 c0 -5 -4 -10 -9 -10 -6 0 -13 5 -16 10 -3 6 1 10 9 10 9 0 16 -4 16
-10z m420 0 c0 -5 -4 -10 -9 -10 -6 0 -13 5 -16 10 -3 6 1 10 9 10 9 0 16 -4
16 -10z m420 0 c0 -5 -4 -10 -10 -10 -5 0 -10 5 -10 10 0 6 5 10 10 10 6 0 10
-4 10 -10z m710 0 c0 -5 -4 -10 -9 -10 -6 0 -13 5 -16 10 -3 6 1 10 9 10 9 0
16 -4 16 -10z m430 6 c0 -11 -19 -15 -25 -6 -3 5 1 10 9 10 9 0 16 -2 16 -4z
m410 -6 c0 -5 -2 -10 -4 -10 -3 0 -8 5 -11 10 -3 6 -1 10 4 10 6 0 11 -4 11
-10z m-2330 -74 c0 -3 -4 -8 -10 -11 -5 -3 -10 -1 -10 4 0 6 5 11 10 11 6 0
10 -2 10 -4z m1835 -6 c3 -5 1 -10 -4 -10 -6 0 -11 5 -11 10 0 6 2 10 4 10 3
0 8 -4 11 -10z m435 -6 c0 -2 -7 -4 -15 -4 -8 0 -15 4 -15 10 0 5 7 7 15 4 8
-4 15 -8 15 -10z m-1133 0 c-3 -3 -12 -4 -19 -1 -8 3 -5 6 6 6 11 1 17 -2 13
-5z m-1767 -59 c0 -8 -7 -15 -15 -15 -8 0 -15 7 -15 15 0 8 7 15 15 15 8 0 15
-7 15 -15z m430 11 c0 -2 -7 -9 -15 -16 -12 -10 -15 -10 -15 4 0 9 7 16 15 16
8 0 15 -2 15 -4z m280 -11 c0 -8 -7 -15 -15 -15 -13 0 -14 3 -3 15 16 18 18
18 18 0z m420 0 c0 -8 -7 -15 -15 -15 -9 0 -12 6 -9 15 4 8 10 15 15 15 5 0 9
-7 9 -15z m430 0 c0 -8 -7 -15 -15 -15 -8 0 -15 7 -15 15 0 8 7 15 15 15 8 0
15 -7 15 -15z m414 0 c-4 -8 -10 -15 -15 -15 -5 0 -9 7 -9 15 0 8 7 15 15 15
9 0 12 -6 9 -15z m286 0 c0 -8 -4 -15 -10 -15 -5 0 -7 7 -4 15 4 8 8 15 10 15
2 0 4 -7 4 -15z m430 0 c0 -8 -7 -15 -15 -15 -8 0 -15 7 -15 15 0 8 7 15 15
15 8 0 15 -7 15 -15z m420 0 c0 -8 -7 -15 -15 -15 -8 0 -15 7 -15 15 0 8 7 15
15 15 8 0 15 -7 15 -15z m-1763 -61 c-3 -3 -12 -4 -19 -1 -8 3 -5 6 6 6 11 1
17 -2 13 -5z m1550 0 c-3 -3 -12 -4 -19 -1 -8 3 -5 6 6 6 11 1 17 -2 13 -5z
m-3042 -84 c-3 -5 -10 -10 -16 -10 -5 0 -9 5 -9 10 0 6 7 10 16 10 8 0 12 -4
9 -10z m280 0 c3 -5 1 -10 -4 -10 -6 0 -11 5 -11 10 0 6 2 10 4 10 3 0 8 -4
11 -10z m435 -6 c0 -2 -7 -4 -15 -4 -8 0 -15 4 -15 10 0 5 7 7 15 4 8 -4 15
-8 15 -10z m415 6 c3 -5 -1 -10 -9 -10 -9 0 -16 5 -16 10 0 6 4 10 9 10 6 0
13 -4 16 -10z m710 0 c3 -5 -1 -10 -10 -10 -9 0 -13 5 -10 10 3 6 8 10 10 10
2 0 7 -4 10 -10z m420 0 c3 -5 -1 -10 -9 -10 -9 0 -16 5 -16 10 0 6 4 10 9 10
6 0 13 -4 16 -10z m425 0 c0 -5 -4 -10 -10 -10 -5 0 -10 5 -10 10 0 6 5 10 10
10 6 0 10 -4 10 -10z m205 -59 c3 -5 1 -12 -5 -16 -5 -3 -10 1 -10 9 0 18 6
21 15 7z m-2395 -11 c0 -5 -4 -10 -10 -10 -5 0 -10 5 -10 10 0 6 5 10 10 10 6
0 10 -4 10 -10z m430 0 c0 -5 -7 -10 -15 -10 -8 0 -15 5 -15 10 0 6 7 10 15
10 8 0 15 -4 15 -10z m420 6 c0 -3 -4 -8 -10 -11 -5 -3 -10 -1 -10 4 0 6 5 11
10 11 6 0 10 -2 10 -4z m290 -6 c0 -5 -4 -10 -10 -10 -5 0 -10 5 -10 10 0 6 5
10 10 10 6 0 10 -4 10 -10z m420 0 c0 -5 -7 -10 -15 -10 -8 0 -15 5 -15 10 0
6 7 10 15 10 8 0 15 -4 15 -10z m420 0 c0 -5 -4 -10 -10 -10 -5 0 -10 5 -10
10 0 6 5 10 10 10 6 0 10 -4 10 -10z m710 0 c0 -5 -5 -10 -11 -10 -5 0 -7 5
-4 10 3 6 8 10 11 10 2 0 4 -4 4 -10z m-2830 -139 c0 -5 -7 -11 -14 -14 -10
-4 -13 -1 -9 9 6 15 23 19 23 5z m420 5 c0 -3 -4 -8 -10 -11 -5 -3 -10 -1 -10
4 0 6 5 11 10 11 6 0 10 -2 10 -4z m288 -8 c-2 -6 -10 -14 -16 -16 -7 -2 -10
2 -6 12 7 18 28 22 22 4z m422 -3 c0 -8 -4 -15 -10 -15 -5 0 -10 7 -10 15 0 8
5 15 10 15 6 0 10 -7 10 -15z m430 11 c0 -2 -7 -9 -15 -16 -12 -10 -15 -10
-15 4 0 9 7 16 15 16 8 0 15 -2 15 -4z m702 -11 c0 -5 -5 -11 -11 -13 -6 -2
-11 4 -11 13 0 9 5 15 11 13 6 -2 11 -8 11 -13z m426 3 c-6 -18 -28 -21 -28
-4 0 9 7 16 16 16 9 0 14 -5 12 -12z m-2898 -68 c0 -5 -4 -10 -9 -10 -6 0 -13
5 -16 10 -3 6 1 10 9 10 9 0 16 -4 16 -10z m440 0 c21 0 32 -49 33 -144 0
-118 -6 -142 -36 -150 -36 -9 -221 -7 -237 4 -20 13 -22 252 -2 272 12 12 187
29 220 21 8 -2 18 -3 22 -3z m478 -13 c8 -7 12 -46 12 -133 0 -158 4 -154
-143 -154 -62 0 -119 5 -127 10 -18 11 -31 207 -17 253 10 31 25 36 117 39 82
4 142 -2 158 -15z m212 13 c0 -5 -4 -10 -10 -10 -5 0 -10 5 -10 10 0 6 5 10
10 10 6 0 10 -4 10 -10z m445 -6 c14 -9 25 -24 25 -34 0 -10 6 -20 13 -23 10
-4 10 -7 0 -18 -15 -15 -17 -119 -3 -119 6 0 10 -7 10 -15 0 -8 -4 -15 -10
-15 -5 0 -10 -17 -10 -38 0 -21 -5 -43 -12 -50 -15 -15 -261 -17 -289 -2 -17
10 -19 23 -19 155 0 104 3 146 13 152 6 4 64 11 127 14 63 3 119 6 123 7 4 1
19 -5 32 -14z m542 -4 c8 -10 12 -59 13 -149 0 -177 6 -171 -157 -171 -167 0
-163 -4 -163 174 0 97 4 137 13 144 13 11 82 17 207 17 55 0 78 -4 87 -15z
m143 10 c0 -5 -4 -10 -10 -10 -5 0 -10 5 -10 10 0 6 5 10 10 10 6 0 10 -4 10
-10z m457 -12 c13 -14 17 -35 16 -103 0 -47 4 -85 8 -85 5 0 4 -10 -1 -22 -5
-13 -11 -35 -14 -50 l-6 -28 -124 0 c-69 0 -131 3 -140 6 -13 5 -16 27 -16
134 0 163 2 165 170 165 71 0 93 -4 107 -17z m-2577 -133 c0 -8 -4 -15 -10
-15 -5 0 -10 7 -10 15 0 8 5 15 10 15 6 0 10 -7 10 -15z m430 0 c0 -8 -7 -15
-15 -15 -8 0 -15 7 -15 15 0 8 7 15 15 15 8 0 15 -7 15 -15z m418 3 c-6 -18
-28 -21 -28 -4 0 9 7 16 16 16 9 0 14 -5 12 -12z m712 -3 c0 -8 -7 -15 -15
-15 -8 0 -15 7 -15 15 0 8 7 15 15 15 8 0 15 -7 15 -15z m1126 -12 c-10 -10
-19 5 -10 18 6 11 8 11 12 0 2 -7 1 -15 -2 -18z m-1626 -53 c0 -5 -2 -10 -4
-10 -3 0 -8 5 -11 10 -3 6 -1 10 4 10 6 0 11 -4 11 -10z m1130 0 c0 -5 -2 -10
-4 -10 -3 0 -8 5 -11 10 -3 6 -1 10 4 10 6 0 11 -4 11 -10z m-2330 -86 c0 -2
-7 -4 -15 -4 -8 0 -15 4 -15 10 0 5 7 7 15 4 8 -4 15 -8 15 -10z m1125 6 c3
-5 -1 -10 -10 -10 -9 0 -13 5 -10 10 3 6 8 10 10 10 2 0 7 -4 10 -10z m1130 0
c3 -5 1 -10 -4 -10 -6 0 -11 5 -11 10 0 6 2 10 4 10 3 0 8 -4 11 -10z m-2045
-65 c0 -8 -4 -15 -10 -15 -5 0 -10 7 -10 15 0 8 5 15 10 15 6 0 10 -7 10 -15z
m420 6 c0 -6 -4 -13 -10 -16 -5 -3 -10 1 -10 9 0 9 5 16 10 16 6 0 10 -4 10
-9z m290 -6 c0 -8 -7 -15 -16 -15 -14 0 -14 3 -4 15 7 8 14 15 16 15 2 0 4 -7
4 -15z m420 0 c0 -8 -4 -15 -10 -15 -5 0 -10 7 -10 15 0 8 5 15 10 15 6 0 10
-7 10 -15z m428 3 c-6 -18 -28 -21 -28 -4 0 9 7 16 16 16 9 0 14 -5 12 -12z
m412 2 c0 -5 -2 -10 -4 -10 -3 0 -8 5 -11 10 -3 6 -1 10 4 10 6 0 11 -4 11
-10z m300 -5 c0 -8 -7 -15 -15 -15 -16 0 -20 12 -8 23 11 12 23 8 23 -8z m420
0 c0 -8 -7 -15 -15 -15 -8 0 -15 7 -15 15 0 8 7 15 15 15 8 0 15 -7 15 -15z
m-2190 -65 c0 -5 -8 -10 -17 -10 -15 0 -16 2 -3 10 19 12 20 12 20 0z m417 4
c-3 -3 -12 -4 -19 -1 -8 3 -5 6 6 6 11 1 17 -2 13 -5z m1560 0 c-3 -3 -12 -4
-19 -1 -8 3 -5 6 6 6 11 1 17 -2 13 -5z m-2337 -85 c0 -5 -4 -9 -10 -9 -5 0
-10 7 -10 16 0 8 5 12 10 9 6 -3 10 -10 10 -16z m420 6 c10 -12 10 -15 -4 -15
-9 0 -16 7 -16 15 0 8 2 15 4 15 2 0 9 -7 16 -15z m715 -13 c-8 -8 -25 10 -19
20 4 6 9 5 15 -3 4 -7 6 -15 4 -17z m135 24 c0 -3 -4 -8 -10 -11 -5 -3 -10 -1
-10 4 0 6 5 11 10 11 6 0 10 -2 10 -4z m280 -11 c10 -12 10 -15 -4 -15 -9 0
-16 7 -16 15 0 8 2 15 4 15 2 0 9 -7 16 -15z m845 6 c3 -5 1 -12 -5 -16 -5 -3
-10 1 -10 9 0 18 6 21 15 7z m295 -12 c0 -5 -4 -9 -10 -9 -5 0 -10 7 -10 16 0
8 5 12 10 9 6 -3 10 -10 10 -16z m-1840 7 c0 -3 -4 -8 -10 -11 -5 -3 -10 -1
-10 4 0 6 5 11 10 11 6 0 10 -2 10 -4z m1130 -6 c0 -5 -4 -10 -10 -10 -5 0
-10 5 -10 10 0 6 5 10 10 10 6 0 10 -4 10 -10z m-2190 -65 c0 -8 -4 -15 -10
-15 -5 0 -7 7 -4 15 4 8 8 15 10 15 2 0 4 -7 4 -15z m428 -3 c2 -7 -3 -12 -12
-12 -9 0 -16 7 -16 16 0 17 22 14 28 -4z m422 2 c0 -9 -5 -14 -12 -12 -18 6
-21 28 -4 28 9 0 16 -7 16 -16z m407 -6 c-3 -8 -6 -5 -6 6 -1 11 2 17 5 13 3
-3 4 -12 1 -19z m303 7 c0 -8 -7 -15 -15 -15 -16 0 -20 12 -8 23 11 12 23 8
23 -8z m420 0 c0 -8 -4 -15 -9 -15 -5 0 -11 7 -15 15 -3 9 0 15 9 15 8 0 15
-7 15 -15z m587 1 c29 -9 34 -41 28 -160 -3 -67 -9 -106 -20 -123 -16 -24 -19
-25 -129 -21 -77 2 -118 7 -129 17 -14 11 -17 35 -17 141 0 136 3 145 50 152
40 5 194 1 217 -6z m470 -8 c9 -7 13 -47 13 -139 0 -163 4 -159 -137 -159
-145 0 -143 -3 -143 158 0 95 4 129 14 141 12 13 34 15 128 13 62 -2 118 -8
125 -14z m73 7 c0 -8 -4 -15 -10 -15 -5 0 -10 7 -10 15 0 8 5 15 10 15 6 0 10
-7 10 -15z m-2790 -10 c16 -20 16 -245 0 -275 -10 -18 -21 -20 -123 -20 -156
0 -152 -4 -152 153 0 90 4 128 14 140 19 24 242 25 261 2z m461 -6 c20 -20 20
-27 14 -137 -10 -158 -7 -155 -154 -150 -144 6 -141 2 -141 157 0 153 -2 151
147 151 101 0 115 -2 134 -21z m1909 11 c0 -5 -4 -10 -10 -10 -5 0 -10 5 -10
10 0 6 5 10 10 10 6 0 10 -4 10 -10z m-2830 -141 c0 -5 -7 -9 -15 -9 -8 0 -15
7 -15 15 0 9 6 12 15 9 8 -4 15 -10 15 -15z m1130 1 c0 -5 -7 -10 -16 -10 -8
0 -12 5 -9 10 3 6 10 10 16 10 5 0 9 -4 9 -10z m1130 0 c0 -5 -4 -10 -10 -10
-5 0 -10 5 -10 10 0 6 5 10 10 10 6 0 10 -4 10 -10z m-1630 -70 c0 -5 -4 -10
-10 -10 -5 0 -10 5 -10 10 0 6 5 10 10 10 6 0 10 -4 10 -10z m710 0 c0 -5 -2
-10 -4 -10 -3 0 -8 5 -11 10 -3 6 -1 10 4 10 6 0 11 -4 11 -10z m1560 0 c0 -5
-4 -10 -9 -10 -6 0 -13 5 -16 10 -3 6 1 10 9 10 9 0 16 -4 16 -10z m420 0 c0
-5 -2 -10 -4 -10 -3 0 -8 5 -11 10 -3 6 -1 10 4 10 6 0 11 -4 11 -10z m-2970
-145 c0 -8 -4 -15 -10 -15 -5 0 -10 7 -10 15 0 8 5 15 10 15 6 0 10 -7 10 -15z
m428 3 c-6 -18 -28 -21 -28 -4 0 9 7 16 16 16 9 0 14 -5 12 -12z m422 8 c0 -3
-4 -8 -10 -11 -5 -3 -10 -1 -10 4 0 6 5 11 10 11 6 0 10 -2 10 -4z m1130 -5
c0 -6 -4 -13 -10 -16 -5 -3 -10 1 -10 9 0 9 5 16 10 16 6 0 10 -4 10 -9z m420
5 c0 -3 -4 -8 -10 -11 -5 -3 -10 -1 -10 4 0 6 5 11 10 11 6 0 10 -2 10 -4z
m288 -8 c-2 -6 -10 -14 -16 -16 -7 -2 -10 2 -6 12 7 18 28 22 22 4z m430 0
c-6 -18 -28 -21 -28 -4 0 9 7 16 16 16 9 0 14 -5 12 -12z m-2901 -64 c-3 -3
-12 -4 -19 -1 -8 3 -5 6 6 6 11 1 17 -2 13 -5z m1980 0 c-3 -3 -12 -4 -19 -1
-8 3 -5 6 6 6 11 1 17 -2 13 -5z m278 -4 c-3 -5 -11 -10 -16 -10 -6 0 -7 5 -4
10 3 6 11 10 16 10 6 0 7 -4 4 -10z m-355 -75 c10 -12 10 -15 -4 -15 -9 0 -16
7 -16 15 0 8 2 15 4 15 2 0 9 -7 16 -15z m420 -6 c0 -5 -4 -9 -10 -9 -5 0 -10
7 -10 16 0 8 5 12 10 9 6 -3 10 -10 10 -16z m-2685 1 c-3 -5 -11 -10 -16 -10
-6 0 -7 5 -4 10 3 6 11 10 16 10 6 0 7 -4 4 -10z m705 0 c0 -5 -5 -10 -11 -10
-5 0 -7 5 -4 10 3 6 8 10 11 10 2 0 4 -4 4 -10z m430 0 c0 -5 -4 -10 -10 -10
-5 0 -10 5 -10 10 0 6 5 10 10 10 6 0 10 -4 10 -10z m-1340 -66 c0 -17 -22
-14 -28 4 -2 7 3 12 12 12 9 0 16 -7 16 -16z m420 7 c0 -6 -4 -13 -10 -16 -5
-3 -10 1 -10 9 0 9 5 16 10 16 6 0 10 -4 10 -9z m290 -6 c0 -8 -4 -15 -10 -15
-5 0 -7 7 -4 15 4 8 8 15 10 15 2 0 4 -7 4 -15z m420 0 c0 -8 -7 -15 -15 -15
-16 0 -20 12 -8 23 11 12 23 8 23 -8z m1126 -12 c-10 -10 -19 5 -10 18 6 11 8
11 12 0 2 -7 1 -15 -2 -18z m434 12 c0 -8 -7 -15 -15 -15 -8 0 -15 7 -15 15 0
8 7 15 15 15 8 0 15 -7 15 -15z m420 6 c0 -17 -18 -21 -24 -6 -3 9 0 15 9 15
8 0 15 -4 15 -9z m-2193 -67 c-3 -3 -12 -4 -19 -1 -8 3 -5 6 6 6 11 1 17 -2
13 -5z m1560 0 c-3 -3 -12 -4 -19 -1 -8 3 -5 6 6 6 11 1 17 -2 13 -5z m-2617
-68 c0 -2 -7 -9 -15 -16 -12 -10 -15 -10 -15 4 0 9 7 16 15 16 8 0 15 -2 15
-4z m710 -17 c0 -5 -7 -9 -15 -9 -8 0 -15 7 -15 15 0 9 6 12 15 9 8 -4 15 -10
15 -15z m412 6 c0 -5 -5 -11 -11 -13 -6 -2 -11 4 -11 13 0 9 5 15 11 13 6 -2
11 -8 11 -13z m1136 -3 c2 -7 -3 -12 -12 -12 -9 0 -16 7 -16 16 0 17 22 14 28
-4z m417 9 c3 -5 1 -12 -5 -16 -5 -3 -10 1 -10 9 0 18 6 21 15 7z m715 -12 c0
-5 -4 -9 -10 -9 -5 0 -10 7 -10 16 0 8 5 12 10 9 6 -3 10 -10 10 -16z m428 3
c2 -7 -3 -12 -12 -12 -9 0 -16 7 -16 16 0 17 22 14 28 -4z m-3538 -2 c0 -5 -4
-10 -10 -10 -5 0 -10 5 -10 10 0 6 5 10 10 10 6 0 10 -4 10 -10z m2690 0 c0
-5 -5 -10 -11 -10 -5 0 -7 5 -4 10 3 6 8 10 11 10 2 0 4 -4 4 -10z m-2473 -65
c0 -18 -19 -15 -25 3 -2 7 3 12 11 12 7 0 14 -7 14 -15z m423 -1 c0 -17 -22
-14 -28 4 -2 7 3 12 12 12 9 0 16 -7 16 -16z m420 12 c0 -11 -19 -15 -25 -6
-3 5 1 10 9 10 9 0 16 -2 16 -4z m1134 -11 c-4 -8 -10 -12 -15 -9 -14 8 -10
24 6 24 9 0 12 -6 9 -15z m416 5 c0 -5 -4 -10 -10 -10 -5 0 -10 5 -10 10 0 6
5 10 10 10 6 0 10 -4 10 -10z m286 -17 c-10 -10 -19 5 -10 18 6 11 8 11 12 0
2 -7 1 -15 -2 -18z m434 11 c0 -17 -22 -14 -28 4 -2 7 3 12 12 12 9 0 16 -7
16 -16z m-3540 -4 c0 -5 -8 -10 -17 -10 -15 0 -16 2 -3 10 19 12 20 12 20 0z"/>
<path d="M2130 4940 c-19 -19 -20 -33 -19 -165 0 -143 1 -145 26 -165 36 -28
171 -29 196 -2 40 43 3 122 -56 122 l-27 0 0 94 c0 90 -1 96 -26 115 -34 26
-68 27 -94 1z m60 -169 c0 -12 -20 -25 -27 -18 -7 7 6 27 18 27 5 0 9 -4 9 -9z"/>
<path d="M5180 5789 c-118 -15 -346 -82 -374 -110 -6 -5 -18 -9 -28 -9 -42 0
-305 -151 -336 -192 -7 -10 -19 -18 -25 -18 -7 0 -41 -27 -77 -60 -36 -33 -66
-60 -67 -60 -5 0 -118 -122 -121 -131 -2 -5 1 -9 7 -9 6 0 11 -5 11 -11 0 -6
-9 -9 -20 -6 -16 4 -30 -8 -68 -59 -26 -36 -59 -81 -75 -101 -33 -43 -136
-252 -173 -349 -14 -38 -26 -84 -26 -101 0 -18 -4 -33 -8 -33 -11 0 -26 -70
-46 -210 -25 -175 -7 -481 35 -605 6 -16 22 -66 36 -111 14 -45 32 -90 40
-100 8 -10 15 -26 15 -34 0 -8 6 -26 13 -40 74 -139 107 -193 190 -310 45 -64
261 -284 265 -271 4 13 32 15 32 2 0 -5 -6 -11 -12 -13 -14 -5 39 -57 58 -58
7 0 14 -6 17 -14 9 -22 226 -153 318 -192 130 -55 192 -75 216 -71 12 2 20 1
18 -3 -9 -15 164 -42 300 -47 132 -5 147 -4 235 21 105 30 210 92 253 148 57
74 70 124 67 243 -5 186 -5 299 0 320 11 45 97 130 157 156 53 22 177 39 294
39 47 0 107 3 131 6 38 5 45 9 41 25 -4 13 0 19 11 19 9 0 16 -7 16 -16 0 -51
256 108 318 198 9 13 24 31 32 40 28 31 88 160 110 238 45 155 33 462 -23 628
-12 34 -22 40 -30 20 -4 -8 -6 -7 -6 4 -1 9 4 18 11 20 27 9 -89 233 -136 263
-38 25 -60 12 -129 -76 -34 -44 -83 -108 -109 -141 -26 -33 -45 -65 -41 -71 3
-6 1 -7 -5 -3 -7 4 -22 -5 -36 -20 -48 -53 -62 -69 -130 -143 -37 -42 -173
-182 -301 -311 -224 -227 -233 -237 -239 -283 -4 -26 -5 -56 -1 -66 3 -11 1
-22 -5 -26 -5 -3 -10 -17 -10 -30 0 -13 -5 -37 -11 -52 -34 -86 -57 -132 -82
-168 -33 -48 -158 -178 -201 -210 -56 -41 -160 -92 -243 -120 -51 -17 -83 -32
-83 -41 0 -17 -17 -19 -22 -3 -3 8 -20 8 -62 0 -32 -6 -107 -14 -165 -17 -116
-7 -153 2 -185 48 -18 26 -21 74 -5 83 6 4 8 13 5 20 -2 7 1 16 8 18 15 6 67
79 95 136 21 39 47 129 82 280 12 51 41 133 65 183 24 49 41 94 38 100 -4 6
-2 8 4 4 11 -6 52 38 52 58 1 6 34 38 75 71 40 33 73 64 72 69 -1 5 4 11 12
14 9 3 11 0 6 -9 -8 -11 19 3 90 48 11 6 34 36 51 65 17 29 66 114 109 188
155 270 461 685 711 967 46 52 84 102 84 112 0 18 -34 53 -88 90 -27 19 -35
21 -48 10 -13 -11 -15 -10 -12 6 2 15 -13 27 -72 55 -69 34 -102 46 -230 86
-94 29 -208 41 -390 41 -102 1 -214 -3 -250 -8z m-26 -34 c-4 -8 -10 -15 -15
-15 -5 0 -9 7 -9 15 0 8 7 15 15 15 9 0 12 -6 9 -15z m286 -5 c0 -5 -5 -10
-11 -10 -5 0 -7 5 -4 10 3 6 8 10 11 10 2 0 4 -4 4 -10z m-490 -60 c0 -5 -7
-7 -15 -4 -8 4 -15 8 -15 10 0 2 7 4 15 4 8 0 15 -4 15 -10z m340 -75 c10 -12
10 -15 -4 -15 -9 0 -16 7 -16 15 0 8 2 15 4 15 2 0 9 -7 16 -15z m-415 -5 c3
-5 -1 -10 -9 -10 -9 0 -16 5 -16 10 0 6 4 10 9 10 6 0 13 -4 16 -10z m845 0
c0 -5 -7 -10 -16 -10 -8 0 -12 5 -9 10 3 6 10 10 16 10 5 0 9 -4 9 -10z m-630
-65 c0 -8 -7 -15 -15 -15 -16 0 -20 12 -8 23 11 12 23 8 23 -8z m420 0 c0 -8
-7 -15 -15 -15 -8 0 -15 7 -15 15 0 8 7 15 15 15 8 0 15 -7 15 -15z m420 0 c0
-8 -4 -15 -10 -15 -5 0 -10 7 -10 15 0 8 5 15 10 15 6 0 10 -7 10 -15z m290
-5 c0 -5 -4 -10 -10 -10 -5 0 -10 5 -10 10 0 6 5 10 10 10 6 0 10 -4 10 -10z
m-772 -66 c47 -19 85 -56 118 -112 24 -40 26 -52 22 -136 -3 -88 -5 -95 -38
-138 -44 -58 -104 -98 -146 -98 -18 0 -34 -5 -36 -11 -7 -21 -144 26 -192 65
-135 110 -101 354 59 426 51 24 162 26 213 4z m-928 -75 c0 -5 -7 -9 -15 -9
-15 0 -20 12 -9 23 8 8 24 -1 24 -14z m430 0 c0 -5 -7 -9 -15 -9 -8 0 -15 7
-15 15 0 9 6 12 15 9 8 -4 15 -10 15 -15z m1120 6 c10 -12 10 -15 -4 -15 -9 0
-16 7 -16 15 0 8 2 15 4 15 2 0 9 -7 16 -15z m-420 -5 c0 -5 -4 -10 -10 -10
-5 0 -10 5 -10 10 0 6 5 10 10 10 6 0 10 -4 10 -10z m-1340 -65 c0 -8 -7 -15
-16 -15 -14 0 -14 3 -4 15 7 8 14 15 16 15 2 0 4 -7 4 -15z m420 -1 c0 -8 -4
-12 -10 -9 -5 3 -10 10 -10 16 0 5 5 9 10 9 6 0 10 -7 10 -16z m1140 1 c0 -8
-7 -15 -15 -15 -8 0 -15 7 -15 15 0 8 7 15 15 15 8 0 15 -7 15 -15z m-1286
-140 c-4 -8 -10 -15 -15 -15 -5 0 -9 7 -9 15 0 8 7 15 15 15 9 0 12 -6 9 -15z
m1134 -3 c6 -18 -15 -14 -22 4 -4 10 -1 14 6 12 6 -2 14 -10 16 -16z m-838 -2
c0 -5 -4 -10 -10 -10 -5 0 -10 5 -10 10 0 6 5 10 10 10 6 0 10 -4 10 -10z
m-198 -40 c24 -7 54 -30 91 -69 46 -51 56 -67 66 -120 24 -121 -20 -221 -121
-276 -45 -25 -64 -29 -129 -30 -67 0 -81 3 -123 30 -32 20 -60 50 -84 88 -32
53 -36 66 -36 125 1 78 24 131 81 188 66 67 160 90 255 64z m-302 -26 c0 -14
-3 -14 -15 -4 -8 7 -15 14 -15 16 0 2 7 4 15 4 8 0 15 -7 15 -16z m710 6 c0
-5 -7 -10 -16 -10 -8 0 -12 5 -9 10 3 6 10 10 16 10 5 0 9 -4 9 -10z m840 0
c0 -5 -4 -10 -10 -10 -5 0 -10 5 -10 10 0 6 5 10 10 10 6 0 10 -4 10 -10z
m-988 -145 c0 -5 -5 -11 -11 -13 -6 -2 -11 4 -11 13 0 9 5 15 11 13 6 -2 11
-8 11 -13z m-842 -5 c0 -5 -5 -10 -11 -10 -5 0 -7 5 -4 10 3 6 8 10 11 10 2 0
4 -4 4 -10z m1550 0 c0 -5 -5 -10 -11 -10 -5 0 -7 5 -4 10 3 6 8 10 11 10 2 0
4 -4 4 -10z m-1343 -66 c-3 -3 -12 -4 -19 -1 -8 3 -5 6 6 6 11 1 17 -2 13 -5z
m-357 -85 c0 -5 -4 -9 -10 -9 -5 0 -10 7 -10 16 0 8 5 12 10 9 6 -3 10 -10 10
-16z m1130 0 c0 -5 -4 -9 -10 -9 -5 0 -10 7 -10 16 0 8 5 12 10 9 6 -3 10 -10
10 -16z m430 1 c0 -5 -7 -10 -15 -10 -8 0 -15 5 -15 10 0 6 7 10 15 10 8 0 15
-4 15 -10z m-1342 -61 c-2 -6 -8 -10 -13 -10 -5 0 -11 4 -13 10 -2 6 4 11 13
11 9 0 15 -5 13 -11z m710 -1 c-2 -6 -10 -14 -16 -16 -7 -2 -10 2 -6 12 7 18
28 22 22 4z m420 1 c-2 -6 -8 -10 -13 -10 -5 0 -11 4 -13 10 -2 6 4 11 13 11
9 0 15 -5 13 -11z m-1278 -133 c0 -3 -4 -8 -10 -11 -5 -3 -10 -1 -10 4 0 6 5
11 10 11 6 0 10 -2 10 -4z m290 -17 c0 -5 -7 -9 -15 -9 -9 0 -12 6 -9 15 6 15
24 11 24 -6z m420 0 c0 -5 -7 -9 -15 -9 -15 0 -20 12 -9 23 8 8 24 -1 24 -14z
m422 6 c0 -5 -5 -11 -11 -13 -6 -2 -11 4 -11 13 0 9 5 15 11 13 6 -2 11 -8 11
-13z m288 -1 c0 -8 -5 -12 -10 -9 -6 4 -8 11 -5 16 9 14 15 11 15 -7z m1268 4
c-6 -18 -25 -21 -25 -3 0 8 7 15 15 15 7 0 12 -5 10 -12z m-2818 -8 c0 -5 -5
-10 -11 -10 -5 0 -7 5 -4 10 3 6 8 10 11 10 2 0 4 -4 4 -10z m210 -65 c0 -8
-7 -15 -16 -15 -14 0 -14 3 -4 15 7 8 14 15 16 15 2 0 4 -7 4 -15z m420 0 c0
-9 -6 -12 -15 -9 -8 4 -12 10 -9 15 8 14 24 10 24 -6z m430 -1 c0 -17 -22 -14
-28 4 -2 7 3 12 12 12 9 0 16 -7 16 -16z m410 0 c0 -8 -4 -12 -10 -9 -5 3 -10
10 -10 16 0 5 5 9 10 9 6 0 10 -7 10 -16z m1430 -4 c0 -5 -5 -10 -11 -10 -5 0
-7 5 -4 10 3 6 8 10 11 10 2 0 4 -4 4 -10z m-2378 -145 c86 -57 128 -130 128
-221 0 -141 -109 -254 -244 -256 -107 -2 -192 47 -239 136 -30 58 -30 174 0
232 31 58 91 112 143 129 69 22 161 14 212 -20z m-454 7 c2 -7 -3 -12 -12 -12
-9 0 -16 7 -16 16 0 17 22 14 28 -4z m1132 3 c0 -8 -7 -15 -15 -15 -16 0 -20
12 -8 23 11 12 23 8 23 -8z m1550 0 c0 -8 -7 -15 -15 -15 -9 0 -12 6 -9 15 4
8 10 15 15 15 5 0 9 -7 9 -15z m-2053 -70 c0 -11 -4 -12 -14 -4 -7 6 -13 13
-13 15 0 2 6 4 13 4 8 0 14 -7 14 -15z m293 5 c0 -5 -8 -10 -17 -10 -15 0 -16
2 -3 10 19 12 20 12 20 0z m420 6 c0 -11 -19 -15 -25 -6 -3 5 1 10 9 10 9 0
16 -2 16 -4z m1130 -6 c0 -5 -7 -10 -16 -10 -8 0 -12 5 -9 10 3 6 10 10 16 10
5 0 9 -4 9 -10z m430 0 c0 -5 -4 -10 -9 -10 -6 0 -13 5 -16 10 -3 6 1 10 9 10
9 0 16 -4 16 -10z m-1505 -80 c3 -5 1 -10 -4 -10 -6 0 -11 5 -11 10 0 6 2 10
4 10 3 0 8 -4 11 -10z m1145 -6 c0 -2 -7 -4 -15 -4 -8 0 -15 4 -15 10 0 5 7 7
15 4 8 -4 15 -8 15 -10z m420 12 c0 -3 -4 -8 -10 -11 -5 -3 -10 -1 -10 4 0 6
5 11 10 11 6 0 10 -2 10 -4z m-2913 -78 c-3 -8 -6 -5 -6 6 -1 11 2 17 5 13 3
-3 4 -12 1 -19z m723 7 c0 -8 -4 -15 -10 -15 -5 0 -10 7 -10 15 0 8 5 15 10
15 6 0 10 -7 10 -15z m428 3 c-6 -18 -28 -21 -28 -4 0 9 7 16 16 16 9 0 14 -5
12 -12z m1132 -3 c0 -8 -7 -15 -15 -15 -8 0 -15 7 -15 15 0 8 7 15 15 15 8 0
15 -7 15 -15z m418 3 c-6 -18 -25 -21 -25 -3 0 8 7 15 15 15 7 0 12 -5 10 -12z
m-2898 -68 c0 -5 -2 -10 -4 -10 -3 0 -8 5 -11 10 -3 6 -1 10 4 10 6 0 11 -4
11 -10z m1140 0 c0 -5 -7 -7 -15 -4 -8 4 -15 8 -15 10 0 2 7 4 15 4 8 0 15 -4
15 -10z m1550 0 c0 -5 -7 -7 -15 -4 -8 4 -15 8 -15 10 0 2 7 4 15 4 8 0 15 -4
15 -10z m420 0 c0 -5 -4 -10 -10 -10 -5 0 -10 5 -10 10 0 6 5 10 10 10 6 0 10
-4 10 -10z m-2335 -80 c-3 -5 -10 -10 -16 -10 -5 0 -9 5 -9 10 0 6 7 10 16 10
8 0 12 -4 9 -10z m290 0 c3 -5 1 -10 -4 -10 -6 0 -11 5 -11 10 0 6 2 10 4 10
3 0 8 -4 11 -10z m1265 6 c0 -3 -4 -8 -10 -11 -5 -3 -10 -1 -10 4 0 6 5 11 10
11 6 0 10 -2 10 -4z m285 -6 c3 -5 1 -10 -4 -10 -6 0 -11 5 -11 10 0 6 2 10 4
10 3 0 8 -4 11 -10z m435 -6 c0 -2 -7 -4 -15 -4 -8 0 -15 4 -15 10 0 5 7 7 15
4 8 -4 15 -8 15 -10z m-523 -66 c-3 -8 -6 -5 -6 6 -1 11 2 17 5 13 3 -3 4 -12
1 -19z m303 7 c0 -8 -7 -15 -16 -15 -14 0 -14 3 -4 15 7 8 14 15 16 15 2 0 4
-7 4 -15z m-2680 -5 c0 -5 -7 -10 -15 -10 -8 0 -15 5 -15 10 0 6 7 10 15 10 8
0 15 -4 15 -10z m2260 0 c0 -5 -4 -10 -10 -10 -5 0 -10 5 -10 10 0 6 5 10 10
10 6 0 10 -4 10 -10z m-2410 -140 c0 -5 -4 -10 -10 -10 -5 0 -10 5 -10 10 0 6
5 10 10 10 6 0 10 -4 10 -10z m290 1 c0 -6 -4 -13 -10 -16 -5 -3 -10 1 -10 9
0 9 5 16 10 16 6 0 10 -4 10 -9z m420 -6 c0 -8 -7 -15 -15 -15 -16 0 -20 12
-8 23 11 12 23 8 23 -8z m428 3 c-6 -18 -28 -21 -28 -4 0 9 7 16 16 16 9 0 14
-5 12 -12z m1124 -3 c0 -5 -5 -11 -11 -13 -6 -2 -11 4 -11 13 0 9 5 15 11 13
6 -2 11 -8 11 -13z m426 3 c-6 -18 -28 -21 -28 -4 0 9 7 16 16 16 9 0 14 -5
12 -12z m422 8 c0 -3 -4 -8 -10 -11 -5 -3 -10 -1 -10 4 0 6 5 11 10 11 6 0 10
-2 10 -4z m-130 -16 c0 -5 -5 -10 -11 -10 -5 0 -7 5 -4 10 3 6 8 10 11 10 2 0
4 -4 4 -10z m-2770 -54 c0 -3 -4 -8 -10 -11 -5 -3 -10 -1 -10 4 0 6 5 11 10
11 6 0 10 -2 10 -4z m290 -6 c0 -5 -7 -10 -15 -10 -8 0 -15 5 -15 10 0 6 7 10
15 10 8 0 15 -4 15 -10z m420 0 c0 -5 -4 -10 -10 -10 -5 0 -10 5 -10 10 0 6 5
10 10 10 6 0 10 -4 10 -10z m1140 0 c0 -5 -7 -10 -15 -10 -8 0 -15 5 -15 10 0
6 7 10 15 10 8 0 15 -4 15 -10z m420 0 c0 -5 -4 -10 -9 -10 -6 0 -13 5 -16 10
-3 6 1 10 9 10 9 0 16 -4 16 -10z m420 0 c0 -5 -4 -10 -9 -10 -6 0 -13 5 -16
10 -3 6 1 10 9 10 9 0 16 -4 16 -10z m-2540 -145 c0 -8 -7 -15 -15 -15 -8 0
-15 7 -15 15 0 8 7 15 15 15 8 0 15 -7 15 -15z m420 11 c0 -2 -7 -9 -15 -16
-12 -10 -15 -10 -15 4 0 9 7 16 15 16 8 0 15 -2 15 -4z m290 -11 c0 -8 -7 -15
-15 -15 -9 0 -12 6 -9 15 4 8 10 15 15 15 5 0 9 -7 9 -15z m1254 0 c-4 -8 -8
-15 -10 -15 -2 0 -4 7 -4 15 0 8 4 15 10 15 5 0 7 -7 4 -15z m296 0 c0 -8 -7
-15 -15 -15 -9 0 -12 6 -9 15 4 8 10 15 15 15 5 0 9 -7 9 -15z m-2470 -65 c0
-5 -7 -7 -15 -4 -8 4 -15 8 -15 10 0 2 7 4 15 4 8 0 15 -4 15 -10z m420 0 c0
-5 -7 -7 -15 -4 -8 4 -15 8 -15 10 0 2 7 4 15 4 8 0 15 -4 15 -10z m1550 0 c0
-5 -2 -10 -4 -10 -3 0 -8 5 -11 10 -3 6 -1 10 4 10 6 0 11 -4 11 -10z m420 0
c0 -5 -2 -10 -4 -10 -3 0 -8 5 -11 10 -3 6 -1 10 4 10 6 0 11 -4 11 -10z m290
0 c0 -5 -2 -10 -4 -10 -3 0 -8 5 -11 10 -3 6 -1 10 4 10 6 0 11 -4 11 -10z
m-2620 -74 c0 -3 -4 -8 -10 -11 -5 -3 -10 -1 -10 4 0 6 5 11 10 11 6 0 10 -2
10 -4z m285 -6 c3 -5 -1 -10 -9 -10 -9 0 -16 5 -16 10 0 6 4 10 9 10 6 0 13
-4 16 -10z m420 0 c3 -5 1 -10 -4 -10 -6 0 -11 5 -11 10 0 6 2 10 4 10 3 0 8
-4 11 -10z m1130 0 c3 -5 1 -10 -4 -10 -6 0 -11 5 -11 10 0 6 2 10 4 10 3 0 8
-4 11 -10z m435 -6 c0 -2 -7 -4 -15 -4 -8 0 -15 4 -15 10 0 5 7 7 15 4 8 -4
15 -8 15 -10z m-2194 -71 c-10 -10 -19 5 -10 18 6 11 8 11 12 0 2 -7 1 -15 -2
-18z m424 12 c0 -8 -7 -15 -15 -15 -16 0 -20 12 -8 23 11 12 23 8 23 -8z
m1560 0 c0 -8 -7 -15 -15 -15 -8 0 -15 7 -15 15 0 8 7 15 15 15 8 0 15 -7 15
-15z m-213 -61 c-3 -3 -12 -4 -19 -1 -8 3 -5 6 6 6 11 1 17 -2 13 -5z m-1493
-85 c-8 -14 -24 -10 -24 6 0 9 6 12 15 9 8 -4 12 -10 9 -15z m-204 -64 c0 -8
-7 -15 -15 -15 -8 0 -15 7 -15 15 0 8 7 15 15 15 8 0 15 -7 15 -15z m414 0
c-4 -8 -10 -12 -15 -9 -14 8 -10 24 6 24 9 0 12 -6 9 -15z m1136 0 c0 -8 -4
-15 -9 -15 -5 0 -11 7 -15 15 -3 9 0 15 9 15 8 0 15 -7 15 -15z m-150 -135 c0
-5 -4 -10 -10 -10 -5 0 -10 5 -10 10 0 6 5 10 10 10 6 0 10 -4 10 -10z m-1260
-10 c0 -5 -4 -10 -10 -10 -5 0 -10 5 -10 10 0 6 5 10 10 10 6 0 10 -4 10 -10z
m420 0 c0 -5 -4 -10 -10 -10 -5 0 -10 5 -10 10 0 6 5 10 10 10 6 0 10 -4 10
-10z m218 -69 c3 -8 -1 -12 -9 -9 -7 2 -15 10 -17 17 -3 8 1 12 9 9 7 -2 15
-10 17 -17z m407 9 c3 -5 1 -10 -4 -10 -6 0 -11 5 -11 10 0 6 2 10 4 10 3 0 8
-4 11 -10z m299 -5 c-4 -8 -11 -15 -16 -15 -6 0 -5 6 2 15 7 8 14 15 16 15 2
0 1 -7 -2 -15z m-1134 -5 c0 -5 -7 -7 -15 -4 -8 4 -15 8 -15 10 0 2 7 4 15 4
8 0 15 -4 15 -10z m60 -74 c0 -3 -4 -8 -10 -11 -5 -3 -10 -1 -10 4 0 6 5 11
10 11 6 0 10 -2 10 -4z m510 -65 c0 -12 -20 -25 -27 -18 -7 7 6 27 18 27 5 0
9 -4 9 -9z m420 -6 c0 -8 -7 -15 -15 -15 -8 0 -15 7 -15 15 0 8 7 15 15 15 8
0 15 -7 15 -15z m-920 -65 c0 -5 -2 -10 -4 -10 -3 0 -8 5 -11 10 -3 6 -1 10 4
10 6 0 11 -4 11 -10z m707 4 c-3 -3 -12 -4 -19 -1 -8 3 -5 6 6 6 11 1 17 -2
13 -5z m-357 -84 c0 -5 -4 -10 -10 -10 -5 0 -10 5 -10 10 0 6 5 10 10 10 6 0
10 -4 10 -10z m420 6 c0 -3 -4 -8 -10 -11 -5 -3 -10 -1 -10 4 0 6 5 11 10 11
6 0 10 -2 10 -4z m290 -6 c0 -5 -4 -10 -10 -10 -5 0 -10 5 -10 10 0 6 5 10 10
10 6 0 10 -4 10 -10z m-916 -65 c-4 -8 -10 -15 -15 -15 -5 0 -9 7 -9 15 0 8 7
15 15 15 9 0 12 -6 9 -15z m420 0 c-4 -8 -10 -15 -15 -15 -5 0 -9 7 -9 15 0 8
7 15 15 15 9 0 12 -6 9 -15z m286 -5 c0 -5 -5 -10 -11 -10 -5 0 -7 5 -4 10 3
6 8 10 11 10 2 0 4 -4 4 -10z m-142 -138 c2 -7 -3 -12 -12 -12 -9 0 -16 7 -16
16 0 17 22 14 28 -4z"/>
<path d="M5340 4035 c-7 -8 -18 -15 -24 -15 -46 0 -246 -241 -246 -296 0 -8
-7 -25 -15 -37 -18 -28 -48 -155 -41 -173 3 -8 2 -14 -3 -14 -4 0 -8 -6 -8
-12 -1 -25 -25 -104 -49 -155 -23 -51 -31 -62 -88 -129 l-28 -34 38 0 c109 0
280 47 408 113 82 42 115 66 191 141 100 99 134 157 161 275 17 71 13 153 -8
178 -19 23 -164 135 -201 155 -39 22 -71 23 -87 3z m24 -182 c-5 -5 -12 -12
-16 -18 -4 -6 -8 -2 -8 8 0 9 7 17 17 17 9 0 12 -3 7 -7z m-204 -67 c0 -11
-19 -15 -25 -6 -3 5 1 10 9 10 9 0 16 -2 16 -4z m140 -151 c0 -8 -7 -15 -15
-15 -8 0 -15 7 -15 15 0 8 7 15 15 15 8 0 15 -7 15 -15z m-210 -65 c0 -5 -4
-10 -9 -10 -6 0 -13 5 -16 10 -3 6 1 10 9 10 9 0 16 -4 16 -10z m417 4 c-3 -3
-12 -4 -19 -1 -8 3 -5 6 6 6 11 1 17 -2 13 -5z m-357 -84 c0 -5 -4 -10 -10
-10 -5 0 -10 5 -10 10 0 6 5 10 10 10 6 0 10 -4 10 -10z m210 -59 c0 -6 -4
-13 -10 -16 -5 -3 -10 1 -10 9 0 9 5 16 10 16 6 0 10 -4 10 -9z m-275 -151 c3
-5 -1 -10 -9 -10 -9 0 -16 5 -16 10 0 6 4 10 9 10 6 0 13 -4 16 -10z"/>
<path d="M1210 1931 c-86 -23 -111 -37 -104 -59 5 -14 4 -15 -5 -2 -8 12 -16
9 -46 -20 -76 -73 -126 -233 -111 -354 4 -31 11 -56 16 -56 5 0 7 -6 4 -14
-16 -41 104 -188 185 -228 40 -20 61 -23 161 -23 107 1 118 3 162 28 25 15 64
47 86 71 41 44 71 112 56 126 -5 5 -35 15 -67 23 -53 14 -59 14 -79 -3 -22
-18 -23 -18 -4 -39 17 -19 18 -21 2 -21 -9 0 -14 5 -11 10 10 16 -3 12 -45
-16 -35 -23 -47 -26 -104 -22 -86 5 -128 34 -158 108 -34 82 -30 180 8 256 36
71 67 95 133 102 62 6 128 -23 154 -68 11 -18 26 -30 39 -30 38 0 138 32 138
45 0 20 -57 99 -87 121 -54 40 -112 64 -180 74 -81 12 -64 13 -143 -9z m200
-59 c0 -13 -12 -22 -22 -16 -10 6 -1 24 13 24 5 0 9 -4 9 -8z m-350 -217 c0
-9 -6 -12 -15 -9 -8 4 -15 10 -15 15 0 5 7 9 15 9 8 0 15 -7 15 -15z m60 -205
c0 -5 -2 -10 -4 -10 -3 0 -8 5 -11 10 -3 6 -1 10 4 10 6 0 11 -4 11 -10z m-75
-80 c3 -5 1 -10 -4 -10 -6 0 -11 5 -11 10 0 6 2 10 4 10 3 0 8 -4 11 -10z
m223 -68 c2 -7 -3 -12 -12 -12 -9 0 -16 7 -16 16 0 17 22 14 28 -4z m212 -62
c0 -5 -2 -10 -4 -10 -3 0 -8 5 -11 10 -3 6 -1 10 4 10 6 0 11 -4 11 -10z"/>
<path d="M1732 1923 c-4 -10 -7 -129 -7 -264 0 -188 3 -250 13 -262 7 -8 12
-21 11 -29 -5 -32 17 -71 66 -116 64 -59 119 -77 230 -76 164 1 268 91 294
255 15 91 14 486 -1 495 -6 4 -44 9 -83 12 l-72 4 -7 -32 c-10 -53 -7 -118 7
-123 10 -4 10 -6 0 -6 -16 -1 -18 -111 -3 -111 6 0 10 -7 10 -15 0 -8 -4 -15
-10 -15 -5 0 -9 -46 -9 -107 0 -141 0 -143 -40 -175 -27 -23 -44 -28 -87 -28
-111 0 -144 47 -144 206 0 66 -4 104 -12 112 -10 10 -10 15 -1 20 17 10 17
254 0 264 -7 4 -43 8 -80 8 -55 0 -69 -3 -75 -17z m98 -59 c0 -8 -4 -12 -10
-9 -5 3 -10 10 -10 16 0 5 5 9 10 9 6 0 10 -7 10 -16z m425 6 c-3 -5 -10 -10
-16 -10 -5 0 -9 5 -9 10 0 6 7 10 16 10 8 0 12 -4 9 -10z m2 -296 c-3 -3 -12
-4 -19 -1 -8 3 -5 6 6 6 11 1 17 -2 13 -5z m-417 -118 c0 -11 -19 -15 -25 -6
-3 5 1 10 9 10 9 0 16 -2 16 -4z m420 -12 c0 -14 -3 -14 -15 -4 -8 7 -15 14
-15 16 0 2 7 4 15 4 8 0 15 -7 15 -16z m-73 -80 c-3 -3 -12 -4 -19 -1 -8 3 -5
6 6 6 11 1 17 -2 13 -5z m-207 -59 c0 -8 -7 -15 -15 -15 -9 0 -12 6 -9 15 4 8
10 15 15 15 5 0 9 -7 9 -15z m-80 -70 c0 -8 -2 -15 -4 -15 -2 0 -6 7 -10 15
-3 8 -1 15 4 15 6 0 10 -7 10 -15z"/>
<path d="M2518 1917 c-10 -20 -15 -310 -8 -615 2 -105 4 -113 24 -117 11 -3
120 -4 241 -3 l220 3 3 70 c4 95 3 95 -175 95 l-144 0 1 285 c1 156 -1 289 -4
294 -4 6 -38 10 -76 10 -61 0 -71 -3 -82 -22z m152 -47 c0 -5 -2 -10 -4 -10
-3 0 -8 5 -11 10 -3 6 -1 10 4 10 6 0 11 -4 11 -10z m-60 -216 c0 -14 -3 -14
-15 -4 -8 7 -15 14 -15 16 0 2 7 4 15 4 8 0 15 -7 15 -16z m60 -204 c0 -5 -2
-10 -4 -10 -3 0 -8 5 -11 10 -3 6 -1 10 4 10 6 0 11 -4 11 -10z m-63 -86 c-3
-3 -12 -4 -19 -1 -8 3 -5 6 6 6 11 1 17 -2 13 -5z m217 -59 c-4 -8 -10 -15
-14 -15 -4 0 -10 7 -14 15 -4 10 1 15 14 15 13 0 18 -5 14 -15z m-217 -61 c-3
-3 -12 -4 -19 -1 -8 3 -5 6 6 6 11 1 17 -2 13 -5z"/>
<path d="M3012 1931 c-9 -5 -12 -27 -10 -67 l3 -59 100 -8 100 -9 -2 -280 c-1
-154 2 -291 8 -305 8 -23 12 -24 81 -21 l73 3 5 145 c3 80 3 168 0 195 -3 28
-4 99 -2 158 l3 109 97 -2 c53 -1 103 -2 110 -1 10 1 12 20 10 74 l-3 72 -280
2 c-154 1 -286 -2 -293 -6z m376 -62 c-2 -6 -8 -10 -13 -10 -5 0 -11 4 -13 10
-2 6 4 11 13 11 9 0 15 -5 13 -11z m-148 -139 c0 -5 -4 -10 -10 -10 -5 0 -10
5 -10 10 0 6 5 10 10 10 6 0 10 -4 10 -10z m75 -80 c-3 -5 -11 -10 -16 -10 -6
0 -7 5 -4 10 3 6 11 10 16 10 6 0 7 -4 4 -10z m-75 -339 c0 -6 -4 -13 -10 -16
-5 -3 -10 1 -10 9 0 9 5 16 10 16 6 0 10 -4 10 -9z"/>
<path d="M3722 1933 c-7 -3 -17 -15 -21 -27 -13 -33 2 -501 17 -519 7 -8 10
-21 7 -29 -8 -20 49 -94 103 -134 53 -41 133 -59 225 -50 123 11 190 54 239
153 l32 66 -1 266 c-1 146 -2 268 -2 271 -1 8 -119 12 -141 5 -18 -6 -19 -17
-19 -213 0 -274 -15 -352 -72 -382 -23 -13 -110 -13 -143 0 -30 11 -55 47 -67
97 -8 31 -12 383 -6 473 2 24 0 25 -68 27 -38 1 -76 -1 -83 -4z m88 -63 c0 -5
-4 -10 -10 -10 -5 0 -10 5 -10 10 0 6 5 10 10 10 6 0 10 -4 10 -10z m-70 -216
c0 -8 -4 -12 -10 -9 -5 3 -10 10 -10 16 0 5 5 9 10 9 6 0 10 -7 10 -16z m570
-139 c0 -8 -7 -15 -15 -15 -9 0 -12 6 -9 15 4 8 10 15 15 15 5 0 9 -7 9 -15z
m-500 -65 c0 -5 -2 -10 -4 -10 -3 0 -8 5 -11 10 -3 6 -1 10 4 10 6 0 11 -4 11
-10z m357 -86 c-3 -3 -12 -4 -19 -1 -8 3 -5 6 6 6 11 1 17 -2 13 -5z m-207
-59 c0 -8 -7 -15 -15 -15 -8 0 -15 7 -15 15 0 8 7 15 15 15 8 0 15 -7 15 -15z
m210 -65 c0 -5 -7 -7 -15 -4 -8 4 -15 8 -15 10 0 2 7 4 15 4 8 0 15 -4 15 -10z"/>
<path d="M4497 1933 c-13 -13 -7 -53 8 -53 19 0 20 -16 1 -23 -21 -8 -21 -397
0 -397 8 0 14 -4 14 -10 0 -5 -7 -7 -15 -4 -13 5 -15 -12 -13 -127 l3 -134 83
-3 83 -3 -2 123 c-1 111 0 123 17 129 18 6 64 3 90 -6 7 -2 40 -58 75 -124
l63 -121 83 0 c61 0 85 4 89 14 6 16 -103 202 -145 246 -12 12 -11 16 4 25 92
53 144 126 145 203 0 23 -4 42 -9 42 -5 0 -7 15 -4 33 9 68 -88 165 -185 185
-53 11 -375 16 -385 5z m451 -64 c-2 -6 -8 -10 -13 -10 -5 0 -11 4 -13 10 -2
6 4 11 13 11 9 0 15 -5 13 -11z m-158 -80 c86 -5 110 -28 110 -105 0 -46 -4
-55 -31 -78 -28 -24 -38 -26 -120 -26 l-90 0 3 102 c3 100 4 102 28 108 14 4
27 6 30 4 3 -1 34 -4 70 -5z m-200 -123 c0 -11 -19 -15 -25 -6 -3 5 1 10 9 10
9 0 16 -2 16 -4z m140 -151 c0 -8 -4 -15 -10 -15 -5 0 -10 7 -10 15 0 8 5 15
10 15 6 0 10 -7 10 -15z m-150 -145 c0 -5 -5 -10 -11 -10 -5 0 -7 5 -4 10 3 6
8 10 11 10 2 0 4 -4 4 -10z m10 -130 c0 -5 -2 -10 -4 -10 -3 0 -8 5 -11 10 -3
6 -1 10 4 10 6 0 11 -4 11 -10z"/>
<path d="M5467 1922 c-8 -9 -21 -42 -28 -72 -7 -30 -16 -57 -20 -60 -11 -9
-69 -172 -69 -195 0 -13 -4 -26 -9 -30 -5 -3 -24 -42 -41 -86 -30 -79 -31 -82
-13 -102 18 -20 17 -20 -4 -15 -19 5 -25 -3 -52 -71 -45 -114 -47 -111 54
-111 l84 0 21 69 21 69 42 6 c23 3 83 3 132 1 50 -2 97 -4 106 -5 14 0 34 -48
55 -127 2 -9 30 -13 95 -13 l91 0 -7 28 c-3 15 -15 45 -25 67 -10 22 -25 61
-34 86 -29 90 -128 355 -146 394 -11 22 -26 63 -34 92 -26 92 -25 91 -120 91
-67 1 -87 -3 -99 -16z m183 -55 c0 -8 -6 -14 -14 -14 -8 0 -12 6 -9 14 3 7 9
13 14 13 5 0 9 -6 9 -13z m-142 -145 c2 -7 -3 -12 -12 -12 -9 0 -16 7 -16 16
0 17 22 14 28 -4z m101 -121 c23 -71 41 -136 41 -145 0 -18 -15 -21 -25 -6 -3
6 -37 10 -75 10 -50 0 -69 4 -73 15 -9 21 72 255 87 255 2 0 22 -58 45 -129z
m111 53 c0 -14 -3 -14 -15 -4 -8 7 -15 14 -15 16 0 2 7 4 15 4 8 0 15 -7 15
-16z m-360 -204 c0 -5 -2 -10 -4 -10 -3 0 -8 5 -11 10 -3 6 -1 10 4 10 6 0 11
-4 11 -10z m-63 -206 c-3 -3 -12 -4 -19 -1 -8 3 -5 6 6 6 11 1 17 -2 13 -5z"/>
<path d="M6066 1932 c-11 -11 -6 -52 7 -52 7 -1 5 -6 -6 -14 -14 -11 -17 -23
-12 -72 3 -33 6 -118 5 -191 0 -80 4 -134 10 -138 6 -4 7 -11 4 -17 -8 -13
-13 -212 -6 -245 l4 -23 233 0 c203 0 234 2 239 16 11 28 6 130 -6 142 -8 8
-59 12 -166 12 l-153 0 3 185 c2 145 0 184 -9 180 -7 -2 -13 0 -13 4 0 5 5 11
11 13 12 4 19 114 12 170 l-6 38 -73 -1 c-40 -1 -75 -3 -78 -7z m74 -272 c0
-5 -4 -10 -10 -10 -5 0 -10 5 -10 10 0 6 5 10 10 10 6 0 10 -4 10 -10z m0
-284 c0 -3 -4 -8 -10 -11 -5 -3 -10 -1 -10 4 0 6 5 11 10 11 6 0 10 -2 10 -4z
m204 -71 c-4 -8 -8 -15 -10 -15 -2 0 -4 7 -4 15 0 8 4 15 10 15 5 0 7 -7 4
-15z m-124 -5 c0 -5 -4 -10 -10 -10 -5 0 -10 5 -10 10 0 6 5 10 10 10 6 0 10
-4 10 -10z"/>
<path d="M1322 868 c-6 -8 -10 -125 -11 -318 0 -168 -4 -324 -7 -347 -10 -63
3 -73 93 -73 l74 0 -2 128 -1 127 148 5 149 5 3 66 c3 80 9 78 -161 78 -93 -1
-119 -4 -124 -15 -7 -19 -33 -18 -33 1 0 8 4 15 10 15 5 0 10 37 12 83 l3 82
160 3 c88 1 164 7 168 11 16 16 9 135 -9 148 -23 17 -458 18 -472 1z m88 -133
c0 -8 -7 -15 -15 -15 -9 0 -12 6 -9 15 4 8 10 15 15 15 5 0 9 -7 9 -15z m0
-420 c0 -8 -7 -15 -16 -15 -14 0 -14 3 -4 15 7 8 14 15 16 15 2 0 4 -7 4 -15z"/>
<path d="M1961 866 c-15 -18 -16 -238 -1 -266 6 -12 7 -20 1 -20 -6 0 -10 -50
-10 -122 0 -68 -3 -154 -6 -191 -5 -47 -3 -73 6 -83 10 -12 14 -12 20 -2 7 10
9 9 9 -4 0 -9 -9 -18 -21 -20 -17 -2 -18 -5 -7 -18 11 -13 51 -15 271 -12
l257 3 0 70 c0 63 -2 70 -22 78 -13 4 -90 7 -173 6 -82 -1 -156 3 -162 8 -16
11 -18 123 -3 132 6 4 77 7 158 8 l147 2 3 58 c5 88 4 89 -167 86 l-146 -2 0
69 0 69 58 3 c42 2 57 7 57 17 0 8 7 15 15 15 18 0 20 -19 3 -22 -7 -1 37 -4
97 -8 61 -3 116 -4 123 -2 8 3 12 27 12 73 0 55 -3 70 -17 78 -10 5 -124 9
-254 10 -190 1 -239 -2 -248 -13z m499 -60 c0 -3 -4 -8 -10 -11 -5 -3 -10 -1
-10 4 0 6 5 11 10 11 6 0 10 -2 10 -4z m-410 -136 c0 -5 -7 -7 -15 -4 -8 4
-15 8 -15 10 0 2 7 4 15 4 8 0 15 -4 15 -10z m140 -145 c0 -8 -7 -15 -15 -15
-16 0 -20 12 -8 23 11 12 23 8 23 -8z m-145 -145 c3 -5 -1 -10 -9 -10 -9 0
-16 5 -16 10 0 6 4 10 9 10 6 0 13 -4 16 -10z m355 -211 c0 -5 -7 -9 -15 -9
-15 0 -20 12 -9 23 8 8 24 -1 24 -14z"/>
<path d="M2795 871 c-105 -18 -187 -113 -188 -219 -1 -63 18 -98 79 -147 40
-33 71 -47 152 -70 56 -16 118 -38 139 -50 34 -19 38 -25 37 -60 -2 -48 -23
-65 -81 -65 -24 0 -43 -5 -43 -10 0 -6 -7 -7 -17 -2 -10 5 -36 18 -57 28 -22
10 -48 34 -59 52 -19 33 -21 33 -71 27 -28 -4 -63 -14 -78 -21 l-26 -14 16
-42 c24 -61 88 -121 156 -147 70 -26 201 -29 266 -6 58 20 127 79 145 122 20
48 20 123 0 123 -8 0 -15 7 -15 16 0 9 5 12 11 8 22 -13 -1 50 -27 77 -36 37
-96 68 -101 52 -7 -20 -23 -15 -23 6 0 16 -11 22 -57 31 -32 7 -73 18 -90 25
-20 8 -35 10 -38 4 -4 -5 -12 -9 -18 -8 -9 0 -9 2 0 6 9 3 7 11 -7 26 -24 25
-26 79 -5 97 8 7 13 15 11 19 -2 3 21 7 52 9 32 1 69 5 85 8 17 4 27 1 27 -6
0 -7 10 -25 23 -40 12 -15 27 -35 32 -45 10 -16 14 -16 65 -1 73 22 79 26 73
58 -6 30 -73 112 -107 130 -55 30 -176 43 -261 29z m-58 -73 c-3 -8 -6 -5 -6
6 -1 11 2 17 5 13 3 -3 4 -12 1 -19z m13 -128 c0 -5 -5 -10 -11 -10 -5 0 -7 5
-4 10 3 6 8 10 11 10 2 0 4 -4 4 -10z m80 -210 c0 -5 -2 -10 -4 -10 -3 0 -8 5
-11 10 -3 6 -1 10 4 10 6 0 11 -4 11 -10z m-10 -285 c0 -8 -4 -15 -10 -15 -5
0 -10 7 -10 15 0 8 5 15 10 15 6 0 10 -7 10 -15z"/>
<path d="M3278 869 c-15 -8 -18 -24 -18 -80 0 -85 7 -89 130 -79 47 4 88 5 93
3 4 -2 7 -134 7 -293 0 -328 -9 -298 94 -290 l61 5 3 287 2 287 103 3 102 3 5
68 c4 52 1 72 -9 80 -18 16 -548 21 -573 6z m319 -75 c-3 -3 -12 -4 -19 -1 -8
3 -5 6 6 6 11 1 17 -2 13 -5z m-207 -53 c0 -5 -7 -11 -15 -15 -9 -3 -15 0 -15
9 0 8 7 15 15 15 8 0 15 -4 15 -9z m420 -1 c0 -5 -4 -10 -10 -10 -5 0 -10 5
-10 10 0 6 5 10 10 10 6 0 10 -4 10 -10z m-210 -70 c0 -5 -2 -10 -4 -10 -3 0
-8 5 -11 10 -3 6 -1 10 4 10 6 0 11 -4 11 -10z m-76 -75 c3 -8 1 -15 -4 -15
-6 0 -10 7 -10 15 0 8 2 15 4 15 2 0 6 -7 10 -15z m76 -215 c0 -5 -7 -10 -15
-10 -8 0 -15 5 -15 10 0 6 7 10 15 10 8 0 15 -4 15 -10z m-70 -210 c0 -5 -4
-10 -10 -10 -5 0 -10 5 -10 10 0 6 5 10 10 10 6 0 10 -4 10 -10z"/>
<path d="M3998 869 c-17 -9 -18 -38 -18 -374 l0 -365 53 -2 c28 -1 65 -1 82 0
29 3 48 19 39 33 -2 5 -5 165 -5 358 0 306 -1 350 -15 355 -25 10 -117 6 -136
-5z m94 -141 c-7 -7 -12 -8 -12 -2 0 14 12 26 19 19 2 -3 -1 -11 -7 -17z m-72
-58 c0 -5 -4 -10 -10 -10 -5 0 -10 5 -10 10 0 6 5 10 10 10 6 0 10 -4 10 -10z
m0 -280 c0 -5 -5 -10 -11 -10 -5 0 -7 5 -4 10 3 6 8 10 11 10 2 0 4 -4 4 -10z
m80 -75 c0 -8 -7 -15 -16 -15 -14 0 -14 3 -4 15 7 8 14 15 16 15 2 0 4 -7 4
-15z"/>
<path d="M4276 867 c-17 -13 -13 -47 6 -47 5 0 8 -8 6 -17 -1 -10 0 -22 3 -28
4 -5 12 -28 19 -50 7 -22 22 -62 35 -90 12 -27 30 -77 39 -110 10 -33 26 -78
36 -100 10 -22 32 -82 49 -133 17 -50 35 -100 40 -110 5 -9 12 -25 15 -35 5
-16 17 -17 102 -15 l97 3 38 110 c47 133 89 249 134 370 21 55 32 99 29 113
-5 15 -2 22 9 22 9 0 24 23 37 56 29 70 23 75 -80 72 -68 -3 -75 -5 -87 -28
-11 -24 -27 -71 -127 -380 -24 -74 -49 -136 -54 -138 -6 -2 -14 14 -18 35 -4
21 -31 110 -61 198 -29 88 -60 187 -69 220 -22 85 -32 92 -113 93 -39 1 -76
-4 -85 -11z m524 -407 c0 -5 -2 -10 -4 -10 -3 0 -8 5 -11 10 -3 6 -1 10 4 10
6 0 11 -4 11 -10z m-70 -81 c0 -5 -4 -9 -10 -9 -5 0 -10 7 -10 16 0 8 5 12 10
9 6 -3 10 -10 10 -16z m-210 -64 c0 -8 -4 -15 -9 -15 -13 0 -22 16 -14 24 11
11 23 6 23 -9z"/>
<path d="M5231 866 c-7 -8 -29 -66 -50 -128 -21 -62 -50 -144 -65 -183 -14
-38 -26 -77 -26 -87 0 -9 -4 -18 -8 -20 -5 -1 -24 -46 -42 -98 -18 -52 -43
-116 -56 -141 -40 -77 -37 -80 62 -77 96 3 94 2 116 78 l13 45 146 3 146 3 18
-43 c10 -24 19 -52 19 -63 1 -18 9 -20 89 -23 84 -3 87 -2 87 19 0 13 -9 41
-19 63 -10 23 -42 106 -71 186 -29 80 -61 165 -72 190 -10 25 -23 54 -28 65
-5 11 -23 61 -41 110 -18 50 -37 96 -42 103 -14 18 -161 16 -176 -2z m129
-125 c0 -6 -4 -13 -10 -16 -5 -3 -10 1 -10 9 0 9 5 16 10 16 6 0 10 -4 10 -9z
m-17 -123 c68 -195 70 -200 57 -208 -21 -13 -161 -23 -172 -12 -5 5 2 37 20
83 16 41 37 98 46 127 10 28 21 52 26 52 5 0 15 -19 23 -42z m157 -28 c0 -5
-4 -10 -10 -10 -5 0 -10 5 -10 10 0 6 5 10 10 10 6 0 10 -4 10 -10z m70 -200
c0 -5 -4 -10 -10 -10 -5 0 -10 5 -10 10 0 6 5 10 10 10 6 0 10 -4 10 -10z
m-415 -10 c-3 -5 -10 -10 -16 -10 -5 0 -9 5 -9 10 0 6 7 10 16 10 8 0 12 -4 9
-10z m285 0 c0 -5 -5 -10 -11 -10 -5 0 -7 5 -4 10 3 6 8 10 11 10 2 0 4 -4 4
-10z m-80 -66 c0 -8 -4 -12 -10 -9 -5 3 -10 10 -10 16 0 5 5 9 10 9 6 0 10 -7
10 -16z m-270 -145 c0 -5 -7 -9 -15 -9 -9 0 -12 6 -9 15 6 15 24 11 24 -6z"/>
<path d="M5805 868 c-3 -7 -4 -175 -3 -373 l3 -360 220 -5 c301 -7 275 -13
275 70 0 38 -4 71 -9 74 -5 4 -78 8 -163 9 l-153 4 -3 286 c-3 327 6 301 -99
306 -46 2 -64 -1 -68 -11z m62 -194 c-3 -3 -12 -4 -19 -1 -8 3 -5 6 6 6 11 1
17 -2 13 -5z m63 -78 c0 -3 -4 -8 -10 -11 -5 -3 -10 -1 -10 4 0 6 5 11 10 11
6 0 10 -2 10 -4z m-70 -217 c0 -5 -4 -9 -10 -9 -5 0 -10 7 -10 16 0 8 5 12 10
9 6 -3 10 -10 10 -16z m70 -204 c0 -8 -4 -15 -10 -15 -5 0 -10 7 -10 15 0 8 5
15 10 15 6 0 10 -7 10 -15z m290 -5 c0 -5 -2 -10 -4 -10 -3 0 -8 5 -11 10 -3
6 -1 10 4 10 6 0 11 -4 11 -10z"/>
</g>
</svg>
